<svg width="57" height="70" viewBox="0 0 57 70" fill="none" xmlns="http://www.w3.org/2000/svg">
<path d="M47.461 68.8422L47.4081 52.4354C47.4081 52.4354 47.3022 46.402 51.2187 41.2153C52.7535 39.2042 54.0766 36.9813 54.8176 34.5468C56.8287 28.3546 57.8872 16.0759 48.4136 7.55501C45.0794 4.5912 41.0042 2.63293 36.6114 1.68027C30.3133 0.357148 20.2046 0.251337 11.6836 8.13717C9.19617 10.4129 7.34383 13.3238 6.49703 16.6052C5.86193 19.0397 5.43854 22.3211 5.91486 26.2375C5.96779 26.6609 6.07359 27.1372 6.12651 27.5606C6.33821 28.6191 6.60285 31.5829 4.75047 34.4409L1.20452 39.6805C1.20452 39.6805 0.146008 41.9562 2.84519 42.4326C2.84519 42.4326 3.69196 42.4855 4.27414 42.7502C4.69754 42.9089 4.80339 43.4381 4.53876 43.7557C4.16829 44.232 3.79785 44.973 4.90928 45.6081C5.22683 45.7668 5.3856 46.1903 5.1739 46.5607C4.80343 47.1958 4.59174 48.1485 6.17949 48.5719C6.49704 48.6778 6.70869 48.9953 6.65576 49.3128C6.28529 51.1652 5.65023 56.7224 10.731 56.6165L14.9121 56.1931C17.8759 55.8755 20.5751 57.8867 21.1572 60.8505C21.5277 62.7558 21.7395 65.4021 21.7924 69.001" stroke="#2B2A39" stroke-width="1.6" stroke-miterlimit="10"/>
<path d="M34.6365 43.2239C44.1659 41.1035 50.172 31.6594 48.0515 22.13C45.931 12.6006 36.4869 6.59448 26.9575 8.71492C17.4281 10.8354 11.422 20.2794 13.5425 29.8088C15.663 39.3382 25.1071 45.3443 34.6365 43.2239Z" stroke="#2B2A39" stroke-width="1.6" stroke-miterlimit="10" stroke-linecap="round" stroke-linejoin="round"/>
<path d="M32.589 25.9726C32.589 25.0199 31.7952 24.2261 30.8426 24.2261C29.8899 24.2261 29.096 25.0199 29.096 25.9726C29.096 26.9252 29.8899 27.7191 30.8426 27.7191C31.7952 27.7191 32.589 26.9252 32.589 25.9726Z" stroke="#2B2A39" stroke-width="1.6" stroke-miterlimit="10" stroke-linecap="round" stroke-linejoin="round"/>
<path d="M30.7367 13.3765V11.2065" stroke="#2B2A39" stroke-width="1.6" stroke-miterlimit="10" stroke-linecap="round" stroke-linejoin="round"/>
<path d="M25.4442 14.5937L24.5445 12.6355" stroke="#2B2A39" stroke-width="1.6" stroke-miterlimit="10" stroke-linecap="round" stroke-linejoin="round"/>
<path d="M21.1572 17.928L19.4636 16.552" stroke="#2B2A39" stroke-width="1.6" stroke-miterlimit="10" stroke-linecap="round" stroke-linejoin="round"/>
<path d="M18.6168 22.7446L16.5527 22.2153" stroke="#2B2A39" stroke-width="1.6" stroke-miterlimit="10" stroke-linecap="round" stroke-linejoin="round"/>
<path d="M18.405 28.1958L16.288 28.6192" stroke="#2B2A39" stroke-width="1.6" stroke-miterlimit="10" stroke-linecap="round" stroke-linejoin="round"/>
<path d="M36.0821 14.541L36.9818 12.5828" stroke="#2B2A39" stroke-width="1.6" stroke-miterlimit="10" stroke-linecap="round" stroke-linejoin="round"/>
<path d="M40.4219 17.8221L42.0625 16.446" stroke="#2B2A39" stroke-width="1.6" stroke-miterlimit="10" stroke-linecap="round" stroke-linejoin="round"/>
<path d="M42.9624 22.6389L45.0794 22.0566" stroke="#2B2A39" stroke-width="1.6" stroke-miterlimit="10" stroke-linecap="round" stroke-linejoin="round"/>
<path d="M43.2271 28.0898L45.3441 28.4604" stroke="#2B2A39" stroke-width="1.6" stroke-miterlimit="10" stroke-linecap="round" stroke-linejoin="round"/>
<path d="M29.0958 26.2905L22.1097 27.5607" stroke="#2B2A39" stroke-width="1.6" stroke-miterlimit="10" stroke-linecap="round" stroke-linejoin="round"/>
<path d="M27.1377 38.3569V40.0505" stroke="#2B2A39" stroke-width="1.6" stroke-miterlimit="10"/>
<path d="M30.8953 38.3569V40.0505" stroke="#2B2A39" stroke-width="1.6" stroke-miterlimit="10"/>
<path d="M34.653 38.3042V39.9978" stroke="#2B2A39" stroke-width="1.6" stroke-miterlimit="10"/>
<path d="M41.2158 40.2628L37.2465 36.5051C36.5584 35.87 35.6587 35.4995 34.706 35.4995H30.8425C30.8425 35.4995 28.5667 35.4995 26.979 35.4995C26.0263 35.4995 25.1266 35.87 24.4386 36.558L20.5222 40.3687" stroke="#2B2A39" stroke-width="1.6" stroke-miterlimit="10" stroke-linecap="round" stroke-linejoin="round"/>
<path d="M28.408 17.1872C24.9149 18.1398 22.3216 21.1037 21.8453 24.7555L24.3856 24.2792C25.0737 21.6858 27.0319 19.7276 29.3077 19.0396C33.7005 17.8223 36.6114 20.5215 36.6114 20.5215C33.8063 15.917 28.408 17.1872 28.408 17.1872Z" fill="#5C80FF"/>
</svg>
