<svg width="71" height="65" viewBox="0 0 71 65" fill="none" xmlns="http://www.w3.org/2000/svg">
<path d="M68.2527 48.3528C68.2527 48.3528 65.0179 52.9893 56.6074 52.9893" stroke="#AAAAB0" stroke-width="1.6" stroke-miterlimit="10" stroke-linecap="round" stroke-linejoin="round"/>
<path d="M63.7779 39.0796C63.7779 39.0796 61.9448 41.7753 57.47 41.9909" stroke="#AAAAB0" stroke-width="1.6" stroke-miterlimit="10" stroke-linecap="round" stroke-linejoin="round"/>
<path d="M63.9396 38.7021C59.8961 24.469 54.99 19.0238 51.863 16.8673C49.7065 15.4116 46.7412 16.0047 45.3395 18.1612C44.5847 19.3473 43.9378 20.8568 43.3986 22.3664C43.1291 23.1212 42.9134 23.876 42.6978 24.6308L40.7569 23.0673C38.7621 21.4499 38.1691 19.0238 38.1691 16.4899V1.23242" stroke="#2B2A39" stroke-width="1.6" stroke-miterlimit="10" stroke-linecap="round" stroke-linejoin="round"/>
<path d="M49.976 19.6706C49.7065 19.4549 49.3291 19.4011 48.9517 19.455C48.736 19.5089 48.4125 19.6167 48.143 19.9941C47.6038 20.8567 47.0647 22.0428 46.5256 23.4985C46.3638 23.8759 46.256 24.2533 46.1481 24.6846C46.202 24.6846 53.9116 27.0567 59.0873 34.4967C55.6369 24.7384 52.0247 21.0184 49.976 19.6706Z" fill="#5C80FF"/>
<path d="M2.26294 48.3528C2.26294 48.3528 5.49772 52.9893 13.9082 52.9893" stroke="#AAAAB0" stroke-width="1.6" stroke-miterlimit="10" stroke-linecap="round" stroke-linejoin="round"/>
<path d="M6.73761 39.0796C6.73761 39.0796 8.5707 41.7753 13.0455 41.9909" stroke="#AAAAB0" stroke-width="1.6" stroke-miterlimit="10" stroke-linecap="round" stroke-linejoin="round"/>
<path d="M6.57599 38.7021C10.6195 24.469 15.5255 19.0238 18.6525 16.8673C20.809 15.4116 23.7743 16.0047 25.1761 18.1612C25.9308 19.3473 26.5778 20.8568 27.1169 22.3664C27.3865 23.1212 27.6021 23.876 27.8178 24.6308L29.7587 23.0673C31.7535 21.4499 32.3465 19.0238 32.3465 16.4899V1.23242" stroke="#2B2A39" stroke-width="1.6" stroke-miterlimit="10" stroke-linecap="round" stroke-linejoin="round"/>
<path d="M20.4854 19.6706C20.755 19.4549 21.1324 19.4011 21.5098 19.455C21.7255 19.5089 22.0489 19.6167 22.3185 19.9941C22.8576 20.8567 23.3968 22.0428 23.9359 23.4985C24.0976 23.8759 24.2054 24.2533 24.3133 24.6846C24.2594 24.6846 16.5498 27.0567 11.3741 34.4967C14.8784 24.7384 18.4906 21.0184 20.4854 19.6706Z" fill="#5C80FF"/>
<path d="M6.57597 38.7022C6.57597 38.7022 -5.17717 58.2188 5.44374 62.5858C6.52201 63.0171 7.65421 63.2327 8.84031 63.2327C11.3742 63.2327 14.016 63.017 18.7604 62.5318C22.5343 62.1005 25.5534 58.5962 26.416 54.8761C27.656 49.5926 29.2195 42.2604 29.0578 34.0656C29.0578 33.9039 29.0578 33.7421 29.0578 33.5804C28.95 31.2621 29.9743 29.0517 31.8073 27.596C32.8317 26.7873 34.0178 26.4099 35.2578 26.4099C36.4978 26.4099 37.6839 26.7873 38.7083 27.596C40.5413 29.0517 41.5657 31.2621 41.4578 33.5804C41.4578 33.7421 41.4578 33.9039 41.4578 34.0656C41.2961 42.2604 42.9135 49.6466 44.0996 54.8761C44.9622 58.5962 47.9813 62.1005 51.7552 62.5318C56.4996 63.017 59.0875 63.2327 61.6753 63.2327C62.8075 63.2327 63.9936 63.0171 65.0719 62.5858C75.6928 58.1649 63.9396 38.7022 63.9396 38.7022" stroke="#AAAAB0" stroke-width="1.6" stroke-miterlimit="10" stroke-linecap="round" stroke-linejoin="round"/>
</svg>
