<svg width="71" height="65" viewBox="0 0 71 65" fill="none" xmlns="http://www.w3.org/2000/svg">
<path d="M68.3064 48.2974C68.3064 48.2974 65.0716 52.9339 56.6611 52.9339" stroke="#2B2A39" stroke-width="1.6" stroke-miterlimit="10" stroke-linecap="round" stroke-linejoin="round"/>
<path d="M63.7778 39.0244C63.7778 39.0244 61.9448 41.7201 57.47 41.9357" stroke="#2B2A39" stroke-width="1.6" stroke-miterlimit="10" stroke-linecap="round" stroke-linejoin="round"/>
<path d="M63.9393 38.701C59.8958 24.468 54.9898 19.0228 51.8628 16.8662C49.7063 15.4106 46.7411 16.0036 45.3393 18.1601C44.5845 19.3462 43.9376 20.8558 43.3985 22.3653C43.1289 23.1201 42.9132 23.8749 42.6976 24.6297L40.7567 23.0662C38.7619 21.4488 38.1689 19.0227 38.1689 16.4888V1.23145" stroke="#2B2A39" stroke-width="1.6" stroke-miterlimit="10" stroke-linecap="round" stroke-linejoin="round"/>
<path d="M50.0299 19.616C49.7603 19.4003 49.3829 19.3464 49.0055 19.4003C48.7899 19.4542 48.4664 19.562 48.1968 19.9394C47.6577 20.802 47.1185 21.9881 46.5794 23.4438C46.4177 23.8212 46.3099 24.1985 46.202 24.6298C46.2559 24.6298 53.9655 27.0021 59.1412 34.4421C55.6907 24.7377 52.0246 21.0177 50.0299 19.616Z" fill="#5C80FF"/>
<path d="M2.26294 48.2974C2.26294 48.2974 5.49772 52.9339 13.9082 52.9339" stroke="#2B2A39" stroke-width="1.6" stroke-miterlimit="10" stroke-linecap="round" stroke-linejoin="round"/>
<path d="M6.73773 39.0244C6.73773 39.0244 8.57078 41.7201 13.0456 41.9357" stroke="#2B2A39" stroke-width="1.6" stroke-miterlimit="10" stroke-linecap="round" stroke-linejoin="round"/>
<path d="M6.57587 38.701C10.6193 24.468 15.5254 19.0228 18.6524 16.8662C20.8089 15.4106 23.7741 16.0036 25.1759 18.1601C25.9307 19.3462 26.5776 20.8558 27.1167 22.3653C27.3863 23.1201 27.602 23.8749 27.8176 24.6297L29.7585 23.0662C31.7533 21.4488 32.3463 19.0227 32.3463 16.4888V1.23145" stroke="#2B2A39" stroke-width="1.6" stroke-miterlimit="10" stroke-linecap="round" stroke-linejoin="round"/>
<path d="M20.5394 19.616C20.809 19.4003 21.1864 19.3464 21.5638 19.4003C21.7794 19.4542 22.1029 19.562 22.3724 19.9394C22.9116 20.802 23.4507 21.9881 23.9898 23.4438C24.1516 23.8212 24.2594 24.1985 24.3672 24.6298C24.3133 24.6298 16.6038 27.0021 11.4281 34.4421C14.8785 24.7377 18.4907 21.0177 20.5394 19.616Z" fill="#5C80FF"/>
<path d="M6.57591 38.7011C6.57591 38.7011 -5.17713 58.1637 5.44374 62.5846C6.522 63.0159 7.65417 63.2316 8.84026 63.2316C11.3742 63.2316 14.0159 63.0159 18.7603 62.5307C22.5342 62.0994 25.5533 58.5951 26.4159 54.8751C27.6559 49.5916 29.2194 42.2593 29.0577 34.0646C29.0577 33.9028 29.0577 33.7411 29.0577 33.5794C28.9498 31.2611 29.9742 29.0506 31.8072 27.595C32.8316 26.7863 34.0177 26.4089 35.2577 26.4089C36.4977 26.4089 37.6837 26.7863 38.7081 27.595C40.5411 29.0506 41.5655 31.2611 41.4577 33.5794C41.4577 33.7411 41.4577 33.9028 41.4577 34.0646C41.2959 42.2593 42.9133 49.6455 44.0994 54.8751C44.962 58.5951 47.9811 62.0994 51.755 62.5307C56.4994 63.0159 59.0872 63.2316 61.675 63.2316C62.8072 63.2316 63.9933 63.0159 65.0716 62.5846C75.6924 58.1637 63.9394 38.7011 63.9394 38.7011" stroke="#2B2A39" stroke-width="1.6" stroke-miterlimit="10" stroke-linecap="round" stroke-linejoin="round"/>
<path d="M8.51684 57.7323C8.51684 57.9479 8.35511 58.1636 8.08554 58.1636C7.86989 58.1636 7.65424 58.0019 7.65424 57.7323C7.65424 57.5166 7.81598 57.301 8.08554 57.301C8.37506 57.301 8.51684 57.5166 8.51684 57.7323Z" stroke="#2B2A39" stroke-width="1.6" stroke-miterlimit="10" stroke-linecap="round"/>
<path d="M19.4612 48.2977C19.6994 48.2977 19.8925 48.1046 19.8925 47.8664C19.8925 47.6282 19.6994 47.4351 19.4612 47.4351C19.223 47.4351 19.0299 47.6282 19.0299 47.8664C19.0299 48.1046 19.223 48.2977 19.4612 48.2977Z" stroke="#2B2A39" stroke-width="1.6" stroke-miterlimit="10" stroke-linecap="round"/>
<path d="M19.0299 56.8157C19.2681 56.8157 19.4612 56.6226 19.4612 56.3844C19.4612 56.1462 19.2681 55.9531 19.0299 55.9531C18.7917 55.9531 18.5986 56.1462 18.5986 56.3844C18.5986 56.6226 18.7917 56.8157 19.0299 56.8157Z" stroke="#2B2A39" stroke-width="1.6" stroke-miterlimit="10" stroke-linecap="round"/>
<path d="M47.2264 43.6071C47.2264 43.8228 47.0647 44.0384 46.7951 44.0384C46.5795 44.0384 46.3638 43.8767 46.3638 43.6071C46.3638 43.3915 46.5256 43.1758 46.7951 43.1758C47.0108 43.1758 47.2264 43.3375 47.2264 43.6071Z" stroke="#2B2A39" stroke-width="1.6" stroke-miterlimit="10" stroke-linecap="round"/>
<path d="M54.6125 48.0818C54.8507 48.0818 55.0438 47.8888 55.0438 47.6506C55.0438 47.4124 54.8507 47.2192 54.6125 47.2192C54.3743 47.2192 54.1812 47.4124 54.1812 47.6506C54.1812 47.8888 54.3743 48.0818 54.6125 48.0818Z" stroke="#2B2A39" stroke-width="1.6" stroke-miterlimit="10" stroke-linecap="round"/>
<path d="M50.1377 54.3896C50.1377 54.6052 49.976 54.8208 49.7064 54.8208C49.4907 54.8208 49.2751 54.6591 49.2751 54.3896C49.2751 54.1739 49.4368 53.9583 49.7064 53.9583C49.976 53.9583 50.1377 54.12 50.1377 54.3896Z" stroke="#2B2A39" stroke-width="1.6" stroke-miterlimit="10" stroke-linecap="round"/>
<path d="M58.1707 58.5948C58.1707 58.8105 58.009 59.0262 57.7394 59.0262C57.5238 59.0262 57.3081 58.8644 57.3081 58.5948C57.3081 58.3792 57.4698 58.1636 57.7394 58.1636C57.9551 58.1636 58.1707 58.3792 58.1707 58.5948Z" stroke="#2B2A39" stroke-width="1.6" stroke-miterlimit="10" stroke-linecap="round"/>
</svg>
