<svg width="75" height="75" viewBox="0 0 75 75" fill="none" xmlns="http://www.w3.org/2000/svg">
<mask id="path-1-inside-1" fill="white">
<path d="M40.7959 75.001H34.2041C31.781 75.001 29.8096 73.0296 29.8096 70.6064C29.8096 68.5626 31.2122 66.84 33.1055 66.3509V64.5278C33.1055 64.111 32.8027 63.75 32.3854 63.6688C28.8766 62.9869 25.591 61.6261 22.6197 59.6241C22.264 59.3841 21.7919 59.4243 21.4969 59.719L20.1964 61.0193C21.1034 62.5981 20.9889 64.6322 19.7962 66.0562C19.0031 67.0029 17.8441 67.5769 16.616 67.6309C15.388 67.6838 14.1838 67.2175 13.3143 66.3481L8.65298 61.687C7.823 60.857 7.36597 59.7536 7.36597 58.5796C7.36597 57.4057 7.823 56.3021 8.65298 55.4721C9.48311 54.6421 10.5866 54.1851 11.7605 54.1851C12.5587 54.1851 13.3245 54.3963 13.9937 54.7926L15.2821 53.5041C15.577 53.2094 15.6168 52.7371 15.3771 52.3813C13.375 49.41 12.0142 46.1244 11.3323 42.6158C11.2512 42.1983 10.8899 41.8955 10.4733 41.8955H8.65181C8.45288 42.6744 8.04126 43.3847 7.44609 43.9592C6.58008 44.795 5.44102 45.2293 4.2356 45.1888C1.8605 45.1041 0 43.1441 0 40.7267V34.2051C0 33.0035 0.475781 31.8815 1.33975 31.046C2.20371 30.2107 3.3438 29.7729 4.54395 29.8132C6.48721 29.8779 8.12959 31.2703 8.63144 33.1064H10.4732C10.8899 33.1064 11.2512 32.8037 11.3322 32.3863C12.0141 28.8776 13.3749 25.5919 15.3769 22.6207C15.6167 22.2648 15.5767 21.7926 15.282 21.4979L13.9935 20.2094C13.3244 20.6056 12.5585 20.8168 11.7604 20.8168C10.5864 20.8168 9.48296 20.3598 8.65283 19.5298C6.9394 17.8164 6.9394 15.0284 8.65283 13.3148L13.314 8.65381C15.0274 6.94023 17.8153 6.94053 19.5289 8.65381C20.3588 9.48394 20.8159 10.5874 20.8159 11.7613C20.8159 12.5594 20.6046 13.3252 20.2084 13.9945L21.4969 15.283C21.7919 15.578 22.2639 15.6177 22.6195 15.3779C25.591 13.3759 28.8766 12.015 32.3852 11.3332C32.8027 11.252 33.1055 10.8908 33.1055 10.4742V8.65103C31.2122 8.16191 29.8096 6.4394 29.8096 4.39551C29.8096 1.97236 31.781 0.000976562 34.2041 0.000976562H40.7959C43.219 0.000976562 45.1904 1.97236 45.1904 4.39551C45.1904 6.4394 43.7878 8.16191 41.8945 8.65103V10.4742C41.8945 10.8909 42.1973 11.2521 42.6146 11.3332C46.1234 12.015 49.409 13.3759 52.3803 15.3779C52.736 15.6177 53.2083 15.5778 53.5031 15.283L54.7928 13.9935C53.7998 12.3084 54.0261 10.0989 55.4711 8.65381C57.1844 6.94053 59.9725 6.94023 61.686 8.65381L66.3472 13.3148C68.0606 15.0282 68.0606 17.8163 66.3472 19.5298C65.517 20.3598 64.4136 20.8168 63.2397 20.8168C62.4416 20.8168 61.6758 20.6056 61.0065 20.2094L59.718 21.4979C59.4231 21.7926 59.3833 22.2648 59.6231 22.6207C61.6251 25.5919 62.9859 28.8776 63.6678 32.3862C63.749 32.8037 64.1102 33.1064 64.5268 33.1064H66.3655C66.8405 31.3485 68.36 29.9913 70.2104 29.828C71.4409 29.7183 72.6661 30.1333 73.5727 30.9634C74.4797 31.7939 75 32.9755 75 34.2051V40.7969C75 42.0265 74.4797 43.208 73.5727 44.0386C72.6661 44.8687 71.4396 45.2824 70.2105 45.174C68.36 45.0106 66.8405 43.6535 66.3655 41.8955H64.5268C64.1101 41.8955 63.749 42.1983 63.6678 42.6156C62.9859 46.1244 61.6251 49.41 59.6231 52.3813C59.3833 52.7371 59.4233 53.2094 59.718 53.5041L61.0065 54.7926C61.6758 54.3963 62.4416 54.1851 63.2397 54.1851C64.4136 54.1851 65.517 54.6421 66.3472 55.4721C67.1771 56.3021 67.6342 57.4057 67.6342 58.5796C67.6342 59.7536 67.1771 60.857 66.347 61.687L61.686 66.3481C60.8165 67.2177 59.6137 67.6853 58.3841 67.6309C57.156 67.5769 55.997 67.0029 55.204 66.0564C54.0113 64.6322 53.8964 62.5983 54.8038 61.0193L53.5033 59.719C53.2084 59.4241 52.7363 59.3841 52.3806 59.6241C49.4092 61.6261 46.1235 62.9869 42.6149 63.6688C42.1975 63.75 41.8947 64.1112 41.8947 64.5278V66.3509C43.788 66.84 45.1906 68.5626 45.1906 70.6064C45.1904 73.0296 43.219 75.001 40.7959 75.001ZM22.1133 56.5396C22.8563 56.5396 23.6043 56.7547 24.2569 57.1945C26.9004 58.9756 29.8233 60.1864 32.9443 60.7929C34.7351 61.1408 36.0352 62.7115 36.0352 64.5278V67.3105C36.0352 68.3203 35.2138 69.1416 34.2041 69.1416C33.3964 69.1416 32.7393 69.7987 32.7393 70.6064C32.7393 71.4142 33.3964 72.0713 34.2041 72.0713H40.7959C41.6036 72.0713 42.2607 71.4142 42.2607 70.6064C42.2607 69.7987 41.6036 69.1416 40.7959 69.1416C39.7862 69.1416 38.9648 68.3203 38.9648 67.3105V64.5278C38.9648 62.7117 40.2649 61.1408 42.056 60.7929C45.1768 60.1863 48.0998 58.9756 50.7434 57.1945C52.259 56.1732 54.2911 56.3635 55.5749 57.6474L57.5897 59.6623C58.2778 60.3503 58.2778 61.4701 57.5897 62.1581C57.0315 62.7164 56.9701 63.6021 57.4499 64.1752C57.7204 64.4979 58.098 64.6858 58.5132 64.7042C58.9311 64.7214 59.3205 64.5707 59.6146 64.2766L64.2756 59.6154C64.5524 59.3387 64.7046 58.971 64.7046 58.5798C64.7046 58.1884 64.5523 57.8206 64.2756 57.544C63.7044 56.9729 62.775 56.9731 62.204 57.544L62.1571 57.5909C61.4692 58.2789 60.3495 58.2791 59.6613 57.5909L57.6464 55.576C56.3626 54.2922 56.1722 52.2602 57.1935 50.7445C58.9746 48.1009 60.1855 45.1779 60.7919 42.0569C61.1398 40.2659 62.7105 38.9658 64.5268 38.9658H67.3756C68.3487 38.9658 69.1406 39.7576 69.1406 40.7308C69.1406 41.5202 69.7236 42.1899 70.4681 42.2557C70.8873 42.2923 71.2876 42.1584 71.5939 41.8778C71.9011 41.5967 72.0702 41.2127 72.0702 40.7969V34.2051C72.0702 33.7892 71.9011 33.4053 71.5939 33.1242C71.2874 32.8432 70.8854 32.7089 70.4681 32.7462C69.7236 32.812 69.1406 33.4817 69.1406 34.2711C69.1406 35.2442 68.3489 36.0361 67.3756 36.0361H64.5268C62.7107 36.0361 61.1398 34.7361 60.7919 32.945C60.1853 29.8242 58.9746 26.9012 57.1935 24.2576C56.1721 22.7418 56.3626 20.7098 57.6464 19.4261L59.6145 17.4581C60.3286 16.7441 61.49 16.7443 62.2042 17.4581C62.7752 18.0291 63.7046 18.0294 64.2757 17.4581C64.8469 16.887 64.8469 15.9577 64.2757 15.3864L59.6146 10.7254C59.0439 10.1545 58.1145 10.154 57.543 10.7254C56.9719 11.2964 56.9719 12.2258 57.543 12.797C58.257 13.5109 58.257 14.6727 57.543 15.3867L55.575 17.3547C54.2911 18.6385 52.2592 18.8289 50.7434 17.8076C48.0999 16.0265 45.177 14.8157 42.056 14.2092C40.2649 13.8612 38.9648 12.2904 38.9648 10.4742V7.69141C38.9648 6.68169 39.7862 5.86035 40.7959 5.86035C41.6036 5.86035 42.2607 5.20322 42.2607 4.39551C42.2607 3.58779 41.6036 2.93066 40.7959 2.93066H34.2041C33.3964 2.93066 32.7393 3.58779 32.7393 4.39551C32.7393 5.20322 33.3964 5.86035 34.2041 5.86035C35.2138 5.86035 36.0352 6.68169 36.0352 7.69141V10.4742C36.0352 12.2903 34.7351 13.8612 32.944 14.2091C29.8232 14.8157 26.9002 16.0264 24.2566 17.8075C22.741 18.8288 20.7089 18.6385 19.4251 17.3545L17.4571 15.3865C17.1114 15.0407 16.9209 14.5809 16.9209 14.0917C16.9209 13.6023 17.1116 13.1424 17.4577 12.7965C18.0284 12.2258 18.0284 11.2964 17.4571 10.7252C16.886 10.1538 15.9565 10.1541 15.3855 10.7252L10.7244 15.3862C10.1533 15.9574 10.1533 16.8867 10.7244 17.458C11.0011 17.7347 11.3689 17.887 11.7602 17.887C12.1515 17.887 12.5193 17.7348 12.7958 17.4581C13.5097 16.744 14.6714 16.7441 15.3855 17.458L17.3536 19.426C18.6374 20.7098 18.8278 22.7418 17.8065 24.2575C16.0254 26.9011 14.8146 29.824 14.2081 32.945C13.8602 34.7361 12.2895 36.0361 10.4732 36.0361H7.61367C6.64629 36.0361 5.85938 35.2492 5.85938 34.2818C5.85938 33.4583 5.22539 32.767 4.44624 32.7411C4.04531 32.7263 3.66416 32.8732 3.37646 33.152C3.08833 33.4305 2.92969 33.8046 2.92969 34.2051V40.7267C2.92969 41.545 3.56221 42.2332 4.33975 42.2608C4.74331 42.2756 5.123 42.1297 5.41143 41.8513C5.70029 41.5725 5.85938 41.1979 5.85938 40.7969C5.85938 39.7872 6.68071 38.9658 7.69043 38.9658H10.4732C12.2893 38.9658 13.8602 40.2659 14.2081 42.0569C14.8147 45.1778 16.0254 48.1007 17.8065 50.7443C18.8279 52.2602 18.6374 54.2922 17.3536 55.5758L15.3387 57.5907C14.6506 58.2789 13.5309 58.2788 12.8429 57.5907L12.796 57.5438C12.5193 57.267 12.1516 57.1148 11.7604 57.1148C11.3691 57.1148 11.0011 57.2671 10.7246 57.5438C10.4479 57.8206 10.2955 58.1882 10.2955 58.5796C10.2955 58.9709 10.4477 59.3387 10.7244 59.6153L15.3857 64.2764C15.6798 64.5704 16.0718 64.7225 16.487 64.704C16.9021 64.6857 17.2797 64.4977 17.5503 64.1749C18.03 63.6021 17.9687 62.7162 17.4105 62.158C16.7224 61.4699 16.7224 60.3502 17.4104 59.6622L19.4253 57.6473C20.1564 56.9162 21.1304 56.5396 22.1133 56.5396Z"/>
</mask>
<path d="M40.7959 75.001H34.2041C31.781 75.001 29.8096 73.0296 29.8096 70.6064C29.8096 68.5626 31.2122 66.84 33.1055 66.3509V64.5278C33.1055 64.111 32.8027 63.75 32.3854 63.6688C28.8766 62.9869 25.591 61.6261 22.6197 59.6241C22.264 59.3841 21.7919 59.4243 21.4969 59.719L20.1964 61.0193C21.1034 62.5981 20.9889 64.6322 19.7962 66.0562C19.0031 67.0029 17.8441 67.5769 16.616 67.6309C15.388 67.6838 14.1838 67.2175 13.3143 66.3481L8.65298 61.687C7.823 60.857 7.36597 59.7536 7.36597 58.5796C7.36597 57.4057 7.823 56.3021 8.65298 55.4721C9.48311 54.6421 10.5866 54.1851 11.7605 54.1851C12.5587 54.1851 13.3245 54.3963 13.9937 54.7926L15.2821 53.5041C15.577 53.2094 15.6168 52.7371 15.3771 52.3813C13.375 49.41 12.0142 46.1244 11.3323 42.6158C11.2512 42.1983 10.8899 41.8955 10.4733 41.8955H8.65181C8.45288 42.6744 8.04126 43.3847 7.44609 43.9592C6.58008 44.795 5.44102 45.2293 4.2356 45.1888C1.8605 45.1041 0 43.1441 0 40.7267V34.2051C0 33.0035 0.475781 31.8815 1.33975 31.046C2.20371 30.2107 3.3438 29.7729 4.54395 29.8132C6.48721 29.8779 8.12959 31.2703 8.63144 33.1064H10.4732C10.8899 33.1064 11.2512 32.8037 11.3322 32.3863C12.0141 28.8776 13.3749 25.5919 15.3769 22.6207C15.6167 22.2648 15.5767 21.7926 15.282 21.4979L13.9935 20.2094C13.3244 20.6056 12.5585 20.8168 11.7604 20.8168C10.5864 20.8168 9.48296 20.3598 8.65283 19.5298C6.9394 17.8164 6.9394 15.0284 8.65283 13.3148L13.314 8.65381C15.0274 6.94023 17.8153 6.94053 19.5289 8.65381C20.3588 9.48394 20.8159 10.5874 20.8159 11.7613C20.8159 12.5594 20.6046 13.3252 20.2084 13.9945L21.4969 15.283C21.7919 15.578 22.2639 15.6177 22.6195 15.3779C25.591 13.3759 28.8766 12.015 32.3852 11.3332C32.8027 11.252 33.1055 10.8908 33.1055 10.4742V8.65103C31.2122 8.16191 29.8096 6.4394 29.8096 4.39551C29.8096 1.97236 31.781 0.000976562 34.2041 0.000976562H40.7959C43.219 0.000976562 45.1904 1.97236 45.1904 4.39551C45.1904 6.4394 43.7878 8.16191 41.8945 8.65103V10.4742C41.8945 10.8909 42.1973 11.2521 42.6146 11.3332C46.1234 12.015 49.409 13.3759 52.3803 15.3779C52.736 15.6177 53.2083 15.5778 53.5031 15.283L54.7928 13.9935C53.7998 12.3084 54.0261 10.0989 55.4711 8.65381C57.1844 6.94053 59.9725 6.94023 61.686 8.65381L66.3472 13.3148C68.0606 15.0282 68.0606 17.8163 66.3472 19.5298C65.517 20.3598 64.4136 20.8168 63.2397 20.8168C62.4416 20.8168 61.6758 20.6056 61.0065 20.2094L59.718 21.4979C59.4231 21.7926 59.3833 22.2648 59.6231 22.6207C61.6251 25.5919 62.9859 28.8776 63.6678 32.3862C63.749 32.8037 64.1102 33.1064 64.5268 33.1064H66.3655C66.8405 31.3485 68.36 29.9913 70.2104 29.828C71.4409 29.7183 72.6661 30.1333 73.5727 30.9634C74.4797 31.7939 75 32.9755 75 34.2051V40.7969C75 42.0265 74.4797 43.208 73.5727 44.0386C72.6661 44.8687 71.4396 45.2824 70.2105 45.174C68.36 45.0106 66.8405 43.6535 66.3655 41.8955H64.5268C64.1101 41.8955 63.749 42.1983 63.6678 42.6156C62.9859 46.1244 61.6251 49.41 59.6231 52.3813C59.3833 52.7371 59.4233 53.2094 59.718 53.5041L61.0065 54.7926C61.6758 54.3963 62.4416 54.1851 63.2397 54.1851C64.4136 54.1851 65.517 54.6421 66.3472 55.4721C67.1771 56.3021 67.6342 57.4057 67.6342 58.5796C67.6342 59.7536 67.1771 60.857 66.347 61.687L61.686 66.3481C60.8165 67.2177 59.6137 67.6853 58.3841 67.6309C57.156 67.5769 55.997 67.0029 55.204 66.0564C54.0113 64.6322 53.8964 62.5983 54.8038 61.0193L53.5033 59.719C53.2084 59.4241 52.7363 59.3841 52.3806 59.6241C49.4092 61.6261 46.1235 62.9869 42.6149 63.6688C42.1975 63.75 41.8947 64.1112 41.8947 64.5278V66.3509C43.788 66.84 45.1906 68.5626 45.1906 70.6064C45.1904 73.0296 43.219 75.001 40.7959 75.001ZM22.1133 56.5396C22.8563 56.5396 23.6043 56.7547 24.2569 57.1945C26.9004 58.9756 29.8233 60.1864 32.9443 60.7929C34.7351 61.1408 36.0352 62.7115 36.0352 64.5278V67.3105C36.0352 68.3203 35.2138 69.1416 34.2041 69.1416C33.3964 69.1416 32.7393 69.7987 32.7393 70.6064C32.7393 71.4142 33.3964 72.0713 34.2041 72.0713H40.7959C41.6036 72.0713 42.2607 71.4142 42.2607 70.6064C42.2607 69.7987 41.6036 69.1416 40.7959 69.1416C39.7862 69.1416 38.9648 68.3203 38.9648 67.3105V64.5278C38.9648 62.7117 40.2649 61.1408 42.056 60.7929C45.1768 60.1863 48.0998 58.9756 50.7434 57.1945C52.259 56.1732 54.2911 56.3635 55.5749 57.6474L57.5897 59.6623C58.2778 60.3503 58.2778 61.4701 57.5897 62.1581C57.0315 62.7164 56.9701 63.6021 57.4499 64.1752C57.7204 64.4979 58.098 64.6858 58.5132 64.7042C58.9311 64.7214 59.3205 64.5707 59.6146 64.2766L64.2756 59.6154C64.5524 59.3387 64.7046 58.971 64.7046 58.5798C64.7046 58.1884 64.5523 57.8206 64.2756 57.544C63.7044 56.9729 62.775 56.9731 62.204 57.544L62.1571 57.5909C61.4692 58.2789 60.3495 58.2791 59.6613 57.5909L57.6464 55.576C56.3626 54.2922 56.1722 52.2602 57.1935 50.7445C58.9746 48.1009 60.1855 45.1779 60.7919 42.0569C61.1398 40.2659 62.7105 38.9658 64.5268 38.9658H67.3756C68.3487 38.9658 69.1406 39.7576 69.1406 40.7308C69.1406 41.5202 69.7236 42.1899 70.4681 42.2557C70.8873 42.2923 71.2876 42.1584 71.5939 41.8778C71.9011 41.5967 72.0702 41.2127 72.0702 40.7969V34.2051C72.0702 33.7892 71.9011 33.4053 71.5939 33.1242C71.2874 32.8432 70.8854 32.7089 70.4681 32.7462C69.7236 32.812 69.1406 33.4817 69.1406 34.2711C69.1406 35.2442 68.3489 36.0361 67.3756 36.0361H64.5268C62.7107 36.0361 61.1398 34.7361 60.7919 32.945C60.1853 29.8242 58.9746 26.9012 57.1935 24.2576C56.1721 22.7418 56.3626 20.7098 57.6464 19.4261L59.6145 17.4581C60.3286 16.7441 61.49 16.7443 62.2042 17.4581C62.7752 18.0291 63.7046 18.0294 64.2757 17.4581C64.8469 16.887 64.8469 15.9577 64.2757 15.3864L59.6146 10.7254C59.0439 10.1545 58.1145 10.154 57.543 10.7254C56.9719 11.2964 56.9719 12.2258 57.543 12.797C58.257 13.5109 58.257 14.6727 57.543 15.3867L55.575 17.3547C54.2911 18.6385 52.2592 18.8289 50.7434 17.8076C48.0999 16.0265 45.177 14.8157 42.056 14.2092C40.2649 13.8612 38.9648 12.2904 38.9648 10.4742V7.69141C38.9648 6.68169 39.7862 5.86035 40.7959 5.86035C41.6036 5.86035 42.2607 5.20322 42.2607 4.39551C42.2607 3.58779 41.6036 2.93066 40.7959 2.93066H34.2041C33.3964 2.93066 32.7393 3.58779 32.7393 4.39551C32.7393 5.20322 33.3964 5.86035 34.2041 5.86035C35.2138 5.86035 36.0352 6.68169 36.0352 7.69141V10.4742C36.0352 12.2903 34.7351 13.8612 32.944 14.2091C29.8232 14.8157 26.9002 16.0264 24.2566 17.8075C22.741 18.8288 20.7089 18.6385 19.4251 17.3545L17.4571 15.3865C17.1114 15.0407 16.9209 14.5809 16.9209 14.0917C16.9209 13.6023 17.1116 13.1424 17.4577 12.7965C18.0284 12.2258 18.0284 11.2964 17.4571 10.7252C16.886 10.1538 15.9565 10.1541 15.3855 10.7252L10.7244 15.3862C10.1533 15.9574 10.1533 16.8867 10.7244 17.458C11.0011 17.7347 11.3689 17.887 11.7602 17.887C12.1515 17.887 12.5193 17.7348 12.7958 17.4581C13.5097 16.744 14.6714 16.7441 15.3855 17.458L17.3536 19.426C18.6374 20.7098 18.8278 22.7418 17.8065 24.2575C16.0254 26.9011 14.8146 29.824 14.2081 32.945C13.8602 34.7361 12.2895 36.0361 10.4732 36.0361H7.61367C6.64629 36.0361 5.85938 35.2492 5.85938 34.2818C5.85938 33.4583 5.22539 32.767 4.44624 32.7411C4.04531 32.7263 3.66416 32.8732 3.37646 33.152C3.08833 33.4305 2.92969 33.8046 2.92969 34.2051V40.7267C2.92969 41.545 3.56221 42.2332 4.33975 42.2608C4.74331 42.2756 5.123 42.1297 5.41143 41.8513C5.70029 41.5725 5.85938 41.1979 5.85938 40.7969C5.85938 39.7872 6.68071 38.9658 7.69043 38.9658H10.4732C12.2893 38.9658 13.8602 40.2659 14.2081 42.0569C14.8147 45.1778 16.0254 48.1007 17.8065 50.7443C18.8279 52.2602 18.6374 54.2922 17.3536 55.5758L15.3387 57.5907C14.6506 58.2789 13.5309 58.2788 12.8429 57.5907L12.796 57.5438C12.5193 57.267 12.1516 57.1148 11.7604 57.1148C11.3691 57.1148 11.0011 57.2671 10.7246 57.5438C10.4479 57.8206 10.2955 58.1882 10.2955 58.5796C10.2955 58.9709 10.4477 59.3387 10.7244 59.6153L15.3857 64.2764C15.6798 64.5704 16.0718 64.7225 16.487 64.704C16.9021 64.6857 17.2797 64.4977 17.5503 64.1749C18.03 63.6021 17.9687 62.7162 17.4105 62.158C16.7224 61.4699 16.7224 60.3502 17.4104 59.6622L19.4253 57.6473C20.1564 56.9162 21.1304 56.5396 22.1133 56.5396Z" fill="#2B2A39" stroke="#F6F6F6" mask="url(#path-1-inside-1)"/>
<path d="M31.8419 31.0806C28.5876 31.0806 25.9396 28.4326 25.9396 25.1782C25.9396 21.9239 28.5876 19.2759 31.8419 19.2759C35.0963 19.2759 37.7443 21.9239 37.7443 25.1782C37.7443 28.4326 35.0963 31.0806 31.8419 31.0806ZM31.8419 21.7056C29.9268 21.7056 28.3693 23.2632 28.3693 25.1782C28.3693 27.0933 29.9268 28.6509 31.8419 28.6509C33.757 28.6509 35.3146 27.0933 35.3146 25.1782C35.3146 23.2632 33.757 21.7056 31.8419 21.7056Z" fill="#5C80FF" stroke="#F6F6F6" stroke-width="0.5"/>
<path d="M27.6854 51.8707C24.8888 51.8707 22.6132 49.595 22.6132 46.7984C22.6132 44.0018 24.8888 41.7261 27.6854 41.7261C30.482 41.7261 32.7577 44.0018 32.7577 46.7984C32.7577 49.595 30.482 51.8707 27.6854 51.8707ZM27.6854 44.1558C26.2281 44.1558 25.0429 45.341 25.0429 46.7984C25.0429 48.2557 26.2281 49.441 27.6854 49.441C29.1427 49.441 30.328 48.2557 30.328 46.7984C30.328 45.341 29.1428 44.1558 27.6854 44.1558Z" fill="#5C80FF" stroke="#F6F6F6" stroke-width="0.5"/>
<path d="M38.9924 42.6459L38.9924 42.6459C38.9145 41.9797 39.3917 41.3764 40.0579 41.2984C40.7248 41.2211 41.3278 41.6978 41.4056 42.3643C41.7796 45.5683 44.4985 47.9837 47.7293 47.9837C51.2401 47.9837 54.0963 45.1277 54.0963 41.6167C54.0963 38.3657 51.6635 35.6444 48.4369 35.2884L48.4369 35.2884C47.7701 35.2149 47.289 34.6145 47.3627 33.9477C47.4362 33.2813 48.0369 32.8012 48.7036 32.8734C53.1631 33.3656 56.526 37.124 56.526 41.6167C56.526 46.467 52.5796 50.4134 47.7293 50.4134C43.265 50.4134 39.5092 47.0739 38.9924 42.6459Z" fill="#5C80FF" stroke="#F6F6F6" stroke-width="0.5"/>
<path d="M46.7083 24.3198L46.7083 24.3198C46.934 24.5455 47.0645 24.8599 47.0645 25.1787C47.0645 25.4976 46.9341 25.8119 46.7084 26.0375L46.7083 26.0376C46.4828 26.2632 46.1685 26.3936 45.8496 26.3936C45.5308 26.3936 45.2164 26.2632 44.9907 26.0376C44.7651 25.8119 44.6348 25.4976 44.6348 25.1787C44.6348 24.8585 44.7649 24.5456 44.9907 24.3199C45.2164 24.0943 45.5308 23.9639 45.8496 23.9639C46.1685 23.9639 46.4828 24.0942 46.7083 24.3198Z" fill="#5C80FF" stroke="#2B2A39" stroke-width="0.5"/>
<path d="M36.6411 54.0738L36.6411 54.0737C36.8669 53.848 37.1798 53.7178 37.5 53.7178C37.8189 53.7178 38.1332 53.848 38.3586 54.0737L38.3587 54.0737C38.5844 54.2994 38.7148 54.6138 38.7148 54.9326C38.7148 55.2515 38.5845 55.5658 38.3588 55.7912L38.3586 55.7914C38.1332 56.0171 37.8189 56.1475 37.5 56.1475C37.1811 56.1475 36.8668 56.0171 36.6412 55.7914L36.6411 55.7913C36.4155 55.5658 36.2852 55.2515 36.2852 54.9326C36.2852 54.6137 36.4154 54.2994 36.6411 54.0738Z" fill="#5C80FF" stroke="#2B2A39" stroke-width="0.5"/>
<path d="M20.1866 38.3789L20.1861 38.3784C19.9599 38.1534 19.8306 37.8395 19.8306 37.52C19.8306 37.1993 19.9598 36.8868 20.1861 36.6616L20.1861 36.6616L20.1875 36.6602C20.4109 36.4346 20.7245 36.3052 21.0455 36.3052C21.3649 36.3052 21.6788 36.4344 21.9039 36.6607L21.9043 36.6611C22.1299 36.8868 22.2603 37.2012 22.2603 37.52C22.2603 37.8384 22.1303 38.1515 21.9041 38.3791C21.6785 38.6046 21.3642 38.7349 21.0455 38.7349C20.7253 38.7349 20.4123 38.6046 20.1866 38.3789Z" fill="#5C80FF" stroke="#2B2A39" stroke-width="0.5"/>
<path d="M41.4925 37.1317L41.4924 37.1316C41.2668 36.9062 41.1365 36.5918 41.1365 36.2729C41.1365 35.9528 41.2664 35.6398 41.4927 35.4124C41.7178 35.1873 42.0319 35.0581 42.3513 35.0581C42.6707 35.0581 42.9848 35.1874 43.2098 35.4124C43.436 35.6399 43.5662 35.953 43.5662 36.2729C43.5662 36.5913 43.4362 36.9044 43.2098 37.1319C42.9843 37.3575 42.6701 37.4878 42.3513 37.4878C42.0325 37.4878 41.7181 37.3575 41.4925 37.1317Z" fill="#5C80FF" stroke="#2B2A39" stroke-width="0.5"/>
</svg>
