<svg width="71" height="65" viewBox="0 0 71 65" fill="none" xmlns="http://www.w3.org/2000/svg">
<path d="M68.3064 48.2974C68.3064 48.2974 65.0716 52.9339 56.6611 52.9339" stroke="#2B2A39" stroke-width="1.6" stroke-miterlimit="10" stroke-linecap="round" stroke-linejoin="round"/>
<path d="M63.7777 39.0244C63.7777 39.0244 61.9446 41.7201 57.4698 41.9357" stroke="#2B2A39" stroke-width="1.6" stroke-miterlimit="10" stroke-linecap="round" stroke-linejoin="round"/>
<path d="M63.9393 38.701C59.8958 24.468 54.9897 19.0228 51.8627 16.8662C49.7062 15.4106 46.741 16.0036 45.3393 18.1601C44.5845 19.3462 43.9375 20.8558 43.3984 22.3653C43.1288 23.1201 42.9132 23.8749 42.6975 24.6297L40.7567 23.0662C38.7619 21.4488 38.1688 19.0227 38.1688 16.4888V1.23145" stroke="#2B2A39" stroke-width="1.6" stroke-miterlimit="10" stroke-linecap="round" stroke-linejoin="round"/>
<path d="M50.0298 19.616C49.7602 19.4003 49.3828 19.3464 49.0054 19.4003C48.7898 19.4542 48.4663 19.562 48.1967 19.9394C47.6576 20.802 47.1185 21.9881 46.5794 23.4438C46.4176 23.8212 46.3098 24.1985 46.202 24.6298C46.2559 24.6298 53.9654 27.0021 59.1411 34.4421C55.6907 24.7377 52.0246 21.0177 50.0298 19.616Z" fill="#5C80FF"/>
<path d="M2.26288 48.2974C2.26288 48.2974 5.49766 52.9339 13.9081 52.9339" stroke="#2B2A39" stroke-width="1.6" stroke-miterlimit="10" stroke-linecap="round" stroke-linejoin="round"/>
<path d="M6.73767 39.0244C6.73767 39.0244 8.57071 41.7201 13.0455 41.9357" stroke="#2B2A39" stroke-width="1.6" stroke-miterlimit="10" stroke-linecap="round" stroke-linejoin="round"/>
<path d="M6.57581 38.701C10.6193 24.468 15.5254 19.0228 18.6523 16.8662C20.8089 15.4106 23.7741 16.0036 25.1758 18.1601C25.9306 19.3462 26.5775 20.8558 27.1167 22.3653C27.3862 23.1201 27.6019 23.8749 27.8175 24.6297L29.7584 23.0662C31.7532 21.4488 32.3462 19.0227 32.3462 16.4888V1.23145" stroke="#2B2A39" stroke-width="1.6" stroke-miterlimit="10" stroke-linecap="round" stroke-linejoin="round"/>
<path d="M20.5393 19.616C20.8089 19.4003 21.1863 19.3464 21.5637 19.4003C21.7793 19.4542 22.1028 19.562 22.3724 19.9394C22.9115 20.802 23.4507 21.9881 23.9898 23.4438C24.1515 23.8212 24.2593 24.1985 24.3672 24.6298C24.3133 24.6298 16.6037 27.0021 11.428 34.4421C14.8785 24.7377 18.4907 21.0177 20.5393 19.616Z" fill="#5C80FF"/>
<path d="M6.57585 38.7011C6.57585 38.7011 -5.17719 58.1637 5.44368 62.5846C6.52194 63.0159 7.65411 63.2316 8.8402 63.2316C11.3741 63.2316 14.0159 63.0159 18.7602 62.5307C22.5341 62.0994 25.5532 58.5951 26.4159 54.8751C27.6559 49.5916 29.2193 42.2593 29.0576 34.0646C29.0576 33.9028 29.0576 33.7411 29.0576 33.5794C28.9498 31.2611 29.9741 29.0506 31.8072 27.595C32.8315 26.7863 34.0176 26.4089 35.2576 26.4089C36.4976 26.4089 37.6837 26.7863 38.708 27.595C40.5411 29.0506 41.5654 31.2611 41.4576 33.5794C41.4576 33.7411 41.4576 33.9028 41.4576 34.0646C41.2959 42.2593 42.9132 49.6455 44.0993 54.8751C44.9619 58.5951 47.9811 62.0994 51.755 62.5307C56.4993 63.0159 59.0872 63.2316 61.675 63.2316C62.8072 63.2316 63.9932 63.0159 65.0715 62.5846C75.6924 58.1637 63.9393 38.7011 63.9393 38.7011" stroke="#2B2A39" stroke-width="1.6" stroke-miterlimit="10" stroke-linecap="round" stroke-linejoin="round"/>
<path d="M8.51678 57.7323C8.51678 57.9479 8.35504 58.1636 8.08548 58.1636C7.86983 58.1636 7.65417 58.0019 7.65417 57.7323C7.65417 57.5166 7.81591 57.301 8.08548 57.301C8.35504 57.301 8.51678 57.5166 8.51678 57.7323Z" stroke="#2B2A39" stroke-width="1.6" stroke-miterlimit="10" stroke-linecap="round"/>
<path d="M24.9664 52.9339C26.0983 52.9339 27.0158 52.0165 27.0158 50.8847C27.0158 49.7529 26.0983 48.8352 24.9664 48.8352C23.8346 48.8352 22.9171 49.7529 22.9171 50.8847C22.9171 52.0165 23.8346 52.9339 24.9664 52.9339Z" stroke="#2B2A39" stroke-width="1.6" stroke-miterlimit="10" stroke-linecap="round"/>
<path d="M43.5074 37.0901C44.6392 37.0901 45.5568 36.1728 45.5568 35.0409C45.5568 33.9091 44.6392 32.9915 43.5074 32.9915C42.3755 32.9915 41.458 33.9091 41.458 35.0409C41.458 36.1728 42.3755 37.0901 43.5074 37.0901Z" stroke="#2B2A39" stroke-width="1.6" stroke-miterlimit="10" stroke-linecap="round"/>
<path d="M61.4268 40.1434C62.5586 40.1434 63.4761 39.226 63.4761 38.0942C63.4761 36.9623 62.5586 36.0447 61.4268 36.0447C60.2949 36.0447 59.3774 36.9623 59.3774 38.0942C59.3774 39.226 60.2949 40.1434 61.4268 40.1434Z" stroke="#2B2A39" stroke-width="1.6" stroke-miterlimit="10" stroke-linecap="round"/>
<path d="M66.3644 61.1831C67.4963 61.1831 68.4138 60.2658 68.4138 59.134C68.4138 58.0021 67.4963 57.0845 66.3644 57.0845C65.2326 57.0845 64.3151 58.0021 64.3151 59.134C64.3151 60.2658 65.2326 61.1831 66.3644 61.1831Z" stroke="#2B2A39" stroke-width="1.6" stroke-miterlimit="10" stroke-linecap="round"/>
<path d="M13.2832 41.9358C14.415 41.9358 15.3326 41.0185 15.3326 39.8867C15.3326 38.7548 14.415 37.8372 13.2832 37.8372C12.1514 37.8372 11.2338 38.7548 11.2338 39.8867C11.2338 41.0185 12.1514 41.9358 13.2832 41.9358Z" stroke="#2B2A39" stroke-width="1.6" stroke-miterlimit="10" stroke-linecap="round"/>
<path d="M19.0299 56.8157C19.2681 56.8157 19.4612 56.6226 19.4612 56.3844C19.4612 56.1462 19.2681 55.9531 19.0299 55.9531C18.7917 55.9531 18.5986 56.1462 18.5986 56.3844C18.5986 56.6226 18.7917 56.8157 19.0299 56.8157Z" stroke="#2B2A39" stroke-width="1.6" stroke-miterlimit="10" stroke-linecap="round"/>
<path d="M19.0299 43.1758C19.2681 43.1758 19.4612 42.9827 19.4612 42.7445C19.4612 42.5063 19.2681 42.3132 19.0299 42.3132C18.7917 42.3132 18.5986 42.5063 18.5986 42.7445C18.5986 42.9827 18.7917 43.1758 19.0299 43.1758Z" stroke="#2B2A39" stroke-width="1.6" stroke-miterlimit="10" stroke-linecap="round"/>
<path d="M47.2264 43.6071C47.2264 43.8228 47.0646 44.0384 46.7951 44.0384C46.5794 44.0384 46.3638 43.8767 46.3638 43.6071C46.3638 43.3915 46.5255 43.1758 46.7951 43.1758C47.0107 43.1758 47.2264 43.3375 47.2264 43.6071Z" stroke="#2B2A39" stroke-width="1.6" stroke-miterlimit="10" stroke-linecap="round"/>
<path d="M54.6124 48.0818C54.8506 48.0818 55.0437 47.8888 55.0437 47.6506C55.0437 47.4124 54.8506 47.2192 54.6124 47.2192C54.3742 47.2192 54.1811 47.4124 54.1811 47.6506C54.1811 47.8888 54.3742 48.0818 54.6124 48.0818Z" stroke="#2B2A39" stroke-width="1.6" stroke-miterlimit="10" stroke-linecap="round"/>
<path d="M50.1376 54.3896C50.1376 54.6052 49.9759 54.8208 49.7063 54.8208C49.4907 54.8208 49.275 54.6591 49.275 54.3896C49.275 54.1739 49.4368 53.9583 49.7063 53.9583C49.9759 53.9583 50.1376 54.12 50.1376 54.3896Z" stroke="#2B2A39" stroke-width="1.6" stroke-miterlimit="10" stroke-linecap="round"/>
<path d="M58.1708 58.5948C58.1708 58.8105 58.009 59.0262 57.7395 59.0262C57.5238 59.0262 57.3082 58.8644 57.3082 58.5948C57.3082 58.3792 57.4699 58.1636 57.7395 58.1636C57.9551 58.1636 58.1708 58.3792 58.1708 58.5948Z" stroke="#2B2A39" stroke-width="1.6" stroke-miterlimit="10" stroke-linecap="round"/>
</svg>
