<svg width="65" height="67" viewBox="0 0 65 67" fill="none" xmlns="http://www.w3.org/2000/svg">
<path d="M24.8913 22.3558L26.2101 21.2905C28.1377 19.7688 29.6087 18.1963 29.6087 15.7108V1.00073" stroke="#2B2A39" stroke-width="1.65825" stroke-miterlimit="10" stroke-linecap="round" stroke-linejoin="round"/>
<path d="M7.08698 31.8918C7.08698 31.8918 8.35509 35.6454 16.3188 35.6454" stroke="#2B2A39" stroke-width="1.65825" stroke-miterlimit="10" stroke-linecap="round"/>
<path d="M4.4494 37.7761C5.56534 38.7399 9.26823 41.3268 16.3189 41.3268" stroke="#2B2A39" stroke-width="1.65825" stroke-miterlimit="10" stroke-linecap="round"/>
<path d="M39.9564 22.3558L38.6375 21.2905C36.71 19.7688 35.239 18.1963 35.239 15.7108V1.00073" stroke="#2B2A39" stroke-width="1.65825" stroke-miterlimit="10" stroke-linecap="round" stroke-linejoin="round"/>
<path d="M39.9566 22.3558C39.9566 22.3558 40.3624 20.5297 40.7175 19.5152C41.6306 17.0804 44.6233 16.3196 46.6016 17.9935C53.1958 23.6239 66.1305 37.9282 62.6305 61.9717C62.2754 64.4572 59.6378 65.9282 57.3044 64.9137C53.8552 63.3919 48.6813 60.9064 43.1523 57.5586C40.3117 55.8847 38.5364 52.892 38.2827 49.6456C37.9277 45.2326 37.674 38.5369 38.232 31.9427C38.3335 29.7109 37.5219 27.8341 35.7465 26.4645C34.7828 25.7036 33.6161 25.2978 32.4494 25.2978C31.2828 25.2978 30.1161 25.7036 29.1523 26.4645C27.377 27.8341 26.5654 29.7109 26.6668 31.9427C27.2248 38.5369 26.9204 45.1818 26.6161 49.6456C26.3625 52.9427 24.5364 55.8847 21.7466 57.5586C16.2176 60.9064 11.0944 63.3412 7.59441 64.9137C5.3118 65.9282 2.62341 64.4572 2.26833 61.9717C-1.23166 37.979 11.7031 23.6239 18.2973 17.9935C20.2755 16.3196 23.2683 17.1312 24.1813 19.5152C24.5364 20.5297 24.9422 22.3558 24.9422 22.3558" stroke="#2B2A39" stroke-width="1.65825" stroke-miterlimit="10" stroke-linecap="round"/>
<path d="M57.8116 31.8918C57.8116 31.8918 56.5435 35.6454 48.5797 35.6454" stroke="#2B2A39" stroke-width="1.65825" stroke-miterlimit="10" stroke-linecap="round"/>
<path d="M60.4492 37.7761C59.3333 38.7399 55.6304 41.3268 48.5797 41.3268" stroke="#2B2A39" stroke-width="1.65825" stroke-miterlimit="10" stroke-linecap="round"/>
<path d="M44.8261 54.8194C50.2536 58.0658 55.326 60.5006 58.6231 61.9716C58.7246 62.0223 58.826 62.0223 58.9275 62.0223C59.0796 62.0223 59.1811 61.9716 59.2825 61.9209C59.4347 61.8701 59.5869 61.718 59.6376 61.4136C60.2463 57.4064 60.297 53.6527 60.0434 50.2035L58.6738 51.6238C57.2028 53.1962 54.8695 53.5513 52.942 52.5875L49.9492 51.0658C42.5435 47.4644 41.2246 42.9499 41.2246 42.8992C41.2753 45.2832 41.4275 47.5151 41.529 49.3412C41.5797 51.6238 42.8478 53.6528 44.8261 54.8194Z" fill="#5C80FF"/>
<path d="M20.0727 54.8194C14.6452 58.0658 9.57274 60.5006 6.27565 61.9716C6.1742 62.0223 6.07275 62.0223 5.9713 62.0223C5.81913 62.0223 5.71768 61.9716 5.61623 61.9209C5.46406 61.8701 5.31188 61.718 5.26116 61.4136C4.65247 57.4064 4.60174 53.6527 4.85536 50.2035L6.22492 51.6238C7.69593 53.1962 10.0293 53.5513 11.9568 52.5875L14.9495 51.0658C22.3553 47.4644 23.6741 42.9499 23.6741 42.8992C23.6234 45.2832 23.4713 47.5151 23.3698 49.3412C23.2684 51.6238 22.051 53.6528 20.0727 54.8194Z" fill="#5C80FF"/>
<path d="M52.9926 12.9717C52.9926 12.9717 59.181 18.4499 62.7824 25.3484" stroke="#2B2A39" stroke-width="1.65825" stroke-miterlimit="10" stroke-linecap="round"/>
<path d="M57.9131 12.2109C57.9131 12.2109 61.7681 15.6095 64 19.921" stroke="#2B2A39" stroke-width="1.65825" stroke-miterlimit="10" stroke-linecap="round"/>
<path d="M12.0074 12.9717C12.0074 12.9717 5.81897 18.4499 2.21753 25.3484" stroke="#2B2A39" stroke-width="1.65825" stroke-miterlimit="10" stroke-linecap="round"/>
<path d="M7.08694 12.2109C7.08694 12.2109 3.23188 15.6095 1 19.921" stroke="#2B2A39" stroke-width="1.65825" stroke-miterlimit="10" stroke-linecap="round"/>
</svg>
