<svg width="65" height="65" viewBox="0 0 65 65" fill="none" xmlns="http://www.w3.org/2000/svg">
<path d="M55.3591 63.2324V48.1547C55.3591 48.1547 55.3096 42.5997 58.9303 37.8384C60.3686 35.9536 61.5589 33.9201 62.3028 31.6882C64.4851 24.9925 65.7251 11.8987 51.3913 4.21105C51.3913 4.21105 35.1729 -4.17098 22.7734 7.18692C20.4919 9.27003 18.756 11.9483 17.9624 14.9738C17.3673 17.2057 16.9705 20.2311 17.3673 23.8022C17.4169 24.199 17.4664 24.6453 17.5656 25.0421C17.7144 26.0341 18.0121 28.7124 16.2762 31.341L12.953 36.152C12.953 36.152 11.9611 38.2351 14.441 38.6815C14.441 38.6815 15.185 38.7311 15.7802 38.9791C16.1274 39.1279 16.2761 39.6239 15.9785 39.9215C15.6314 40.3678 15.2841 41.0622 16.3257 41.6078C16.6233 41.7566 16.7721 42.1534 16.5737 42.4509C16.2265 43.0461 16.0281 43.8893 17.4665 44.2861C17.7641 44.3853 17.9624 44.6829 17.9128 44.9804C17.5656 46.7164 16.9704 51.7753 21.6326 51.7257L25.5013 51.329C28.2292 51.081 30.7091 52.9161 31.205 55.5944C31.5026 57.3303 31.7507 59.7606 31.7507 63.1332" stroke="#2B2A39" stroke-width="1.6" stroke-miterlimit="10" stroke-linecap="round"/>
<path d="M21.1862 8.87329C17.516 18.7433 34.28 22.0663 38.1487 22.6615C48.217 24.1494 62.0052 29.1588 58.7814 38.0864" stroke="#2B2A39" stroke-width="1.6" stroke-miterlimit="10" stroke-linecap="round"/>
<path d="M24.3605 13.1886C26.1956 16.3132 32.9906 18.6443 38.5455 19.4875C39.8847 19.6363 41.2239 19.7851 42.563 19.8843C46.4316 20.1322 50.4987 21.273 50.4987 21.273C49.6555 18.9419 46.7292 17.0572 46.7292 17.0572C52.7801 17.454 55.1608 22.017 55.1608 22.017C54.9128 18.1483 51.689 14.0317 51.689 14.0317C60.0214 17.6524 59.8726 28.6631 59.8726 28.6631C61.1621 23.1081 60.8646 13.6845 49.3579 7.58401C49.0603 7.43521 44.1005 4.95532 37.9007 4.95532C33.6353 4.95532 28.7252 6.14567 24.4102 10.1135C24.311 10.2127 24.2117 10.3119 24.1125 10.4111C23.6662 11.7006 24.0133 12.5934 24.3605 13.1886Z" fill="#5C80FF"/>
<path d="M10.126 44.0879L3.52942 46.171" stroke="#2B2A39" stroke-width="1.6" stroke-miterlimit="10" stroke-linecap="round"/>
<path d="M9.08445 40.9136L4.17419 41.36" stroke="#2B2A39" stroke-width="1.6" stroke-miterlimit="10" stroke-linecap="round"/>
<path d="M11.1179 47.262L6.85254 49.7419" stroke="#2B2A39" stroke-width="1.6" stroke-miterlimit="10" stroke-linecap="round"/>
<path d="M3.08308 49.6428L1 50.6348" stroke="#2B2A39" stroke-width="1.6" stroke-miterlimit="10" stroke-linecap="round"/>
<path d="M12.9035 50.387L10.2748 52.4205" stroke="#2B2A39" stroke-width="1.6" stroke-miterlimit="10" stroke-linecap="round"/>
</svg>
