<svg width="65" height="65" viewBox="0 0 65 65" fill="none" xmlns="http://www.w3.org/2000/svg">
<path d="M26.4217 40.8955L25.1124 41.8151L25.1187 41.824L25.125 41.8328L26.4217 40.8955ZM26.4217 22.6366L25.1197 21.7066L25.1176 21.7096L26.4217 22.6366ZM37.7138 22.6366L36.4045 23.5562L36.4097 23.5636L37.7138 22.6366ZM37.7138 40.8955L39.0179 41.8225L39.0231 41.8151L37.7138 40.8955ZM34.6762 39.1455L33.228 38.4653L33.228 38.4653L34.6762 39.1455ZM34.6762 24.3535L33.228 25.0337L33.228 25.0337L34.6762 24.3535ZM29.4594 24.3535L30.9076 25.0337L29.4594 24.3535ZM32.0678 42.036C30.0877 42.036 28.71 41.3298 27.7184 39.9581L25.125 41.8328C26.7749 44.1151 29.1612 45.236 32.0678 45.236V42.036ZM27.731 39.9758C26.7263 38.5454 26.0737 35.9166 26.0737 31.7495H22.8737C22.8737 36.0791 23.5197 39.5476 25.1124 41.8151L27.731 39.9758ZM26.0737 31.7495C26.0737 27.5796 26.7274 24.9682 27.7258 23.5636L25.1176 21.7096C23.5186 23.959 22.8737 27.4229 22.8737 31.7495H26.0737ZM27.7237 23.5666C28.7185 22.1738 30.0956 21.4631 32.0678 21.4631V18.2631C29.1533 18.2631 26.7664 19.4013 25.1197 21.7066L27.7237 23.5666ZM32.0678 21.4631C34.0675 21.4631 35.436 22.1773 36.4045 23.5562L39.0231 21.717C37.3943 19.3979 34.9987 18.2631 32.0678 18.2631V21.4631ZM36.4097 23.5636C37.4082 24.9682 38.0619 27.5796 38.0619 31.7495H41.2619C41.2619 27.4229 40.6169 23.959 39.0179 21.7096L36.4097 23.5636ZM38.0619 31.7495C38.0619 35.9166 37.4092 38.5454 36.4045 39.9758L39.0231 41.8151C40.6158 39.5476 41.2619 36.0791 41.2619 31.7495H38.0619ZM36.4097 39.9685C35.4445 41.3264 34.0754 42.036 32.0678 42.036V45.236C34.9908 45.236 37.3858 44.1185 39.0179 41.8225L36.4097 39.9685ZM32.0678 42.9247C34.0389 42.9247 35.3321 41.5126 36.1244 39.8258L33.228 38.4653C32.6555 39.684 32.2098 39.7247 32.0678 39.7247V42.9247ZM36.1244 39.8258C36.9689 38.0278 37.2997 35.2505 37.2997 31.7495H34.0997C34.0997 35.2043 33.7482 37.3577 33.228 38.4653L36.1244 39.8258ZM37.2997 31.7495C37.2997 28.2486 36.9689 25.4712 36.1244 23.6733L33.228 25.0337C33.7482 26.1414 34.0997 28.2947 34.0997 31.7495H37.2997ZM36.1244 23.6733C35.3321 21.9865 34.0389 20.5743 32.0678 20.5743V23.7743C32.2098 23.7743 32.6555 23.815 33.228 25.0337L36.1244 23.6733ZM32.0678 20.5743C30.0967 20.5743 28.8035 21.9865 28.0112 23.6733L30.9076 25.0337C31.48 23.815 31.9257 23.7743 32.0678 23.7743V20.5743ZM28.0112 23.6733C27.1667 25.4712 26.8358 28.2486 26.8358 31.7495H30.0358C30.0358 28.2947 30.3873 26.1414 30.9076 25.0337L28.0112 23.6733ZM26.8358 31.7495C26.8358 35.2505 27.1667 38.0278 28.0112 39.8258L30.9076 38.4653C30.3873 37.3577 30.0358 35.2043 30.0358 31.7495H26.8358ZM28.0112 39.8258C28.8035 41.5126 30.0967 42.9247 32.0678 42.9247V39.7247C31.9257 39.7247 31.48 39.684 30.9076 38.4653L28.0112 39.8258Z" fill="#2B2A39"/>
<path d="M40.0432 44.7287C41.0557 43.5701 41.8054 42.6842 42.2922 42.0708C42.779 41.4477 43.1441 40.8733 43.3875 40.3475C43.6406 39.8218 43.7672 39.2863 43.7672 38.7411C43.7672 37.4267 43.2561 36.7695 42.2338 36.7695H40.1892V35.9663C40.4326 35.8884 40.7636 35.8202 41.1823 35.7618C41.6009 35.7034 42.0488 35.6742 42.5258 35.6742C43.5189 35.6742 44.2637 35.9322 44.7603 36.4482C45.2665 36.9545 45.5197 37.7188 45.5197 38.7411C45.5197 39.3155 45.359 39.9191 45.0377 40.552C44.7262 41.1848 44.3221 41.8225 43.8256 42.4651C43.3291 43.0979 42.6524 43.9012 41.7956 44.8748H45.4467V46.0431H40.0432V44.7287Z" fill="#2B2A39"/>
<path d="M32.5 61.7509C32.5 63.5458 31.0413 65.0177 29.2554 64.8385C26.056 64.5175 22.9159 63.7228 19.9392 62.4755C15.9614 60.8085 12.3551 58.3665 9.33051 55.2917C6.30598 52.217 3.9237 48.5709 2.32254 44.5661C0.721379 40.5613 -0.0666404 36.2779 0.00441018 31.9655C0.0754608 27.653 1.00416 23.3979 2.73638 19.448C4.4686 15.4981 6.96969 11.9325 10.0939 8.95907C13.2181 5.98559 16.9029 3.6637 20.9335 2.12873C23.9496 0.980116 27.1142 0.289327 30.3224 0.073885C32.1133 -0.0463794 33.5227 1.47278 33.4636 3.26673C33.4044 5.06068 31.8973 6.44594 30.11 6.61093C27.7656 6.82735 25.4564 7.36168 23.2468 8.20316C20.0223 9.43113 17.0745 11.2886 14.5751 13.6674C12.0758 16.0462 10.0749 18.8987 8.68911 22.0586C7.30333 25.2185 6.56037 28.6226 6.50353 32.0725C6.44669 35.5225 7.0771 38.9492 8.35803 42.1531C9.63896 45.3569 11.5448 48.2737 13.9644 50.7336C16.384 53.1934 19.2691 55.147 22.4514 56.4805C24.6321 57.3943 26.9224 58.0045 29.2584 58.298C31.0394 58.5218 32.5 59.9559 32.5 61.7509Z" fill="#5C80FF"/>
<mask id="path-4-inside-1" fill="white">
<path d="M65 32.5009C65 50.4501 50.4493 65.0009 32.5 65.0009C14.5507 65.0009 0 50.4501 0 32.5009C0 14.5516 14.5507 0.000854492 32.5 0.000854492C50.4493 0.000854492 65 14.5516 65 32.5009ZM6.5 32.5009C6.5 46.8603 18.1406 58.5009 32.5 58.5009C46.8594 58.5009 58.5 46.8603 58.5 32.5009C58.5 18.1415 46.8594 6.50085 32.5 6.50085C18.1406 6.50085 6.5 18.1415 6.5 32.5009Z"/>
</mask>
<path d="M65 32.5009C65 50.4501 50.4493 65.0009 32.5 65.0009C14.5507 65.0009 0 50.4501 0 32.5009C0 14.5516 14.5507 0.000854492 32.5 0.000854492C50.4493 0.000854492 65 14.5516 65 32.5009ZM6.5 32.5009C6.5 46.8603 18.1406 58.5009 32.5 58.5009C46.8594 58.5009 58.5 46.8603 58.5 32.5009C58.5 18.1415 46.8594 6.50085 32.5 6.50085C18.1406 6.50085 6.5 18.1415 6.5 32.5009Z" stroke="#2B2A39" stroke-width="3.2" mask="url(#path-4-inside-1)"/>
</svg>
