<svg width="53" height="64" viewBox="0 0 53 64" fill="none" xmlns="http://www.w3.org/2000/svg">
<path d="M43.6533 62.9522V47.8624C43.6533 47.8624 43.604 42.29 47.2039 37.556C48.634 35.6821 49.8175 33.6602 50.5572 31.4411C52.7269 24.7839 54.0091 11.6666 39.6097 3.9738C39.6097 3.9738 23.3857 -4.40943 11.0081 6.98188C8.73971 9.10234 7.01376 11.7652 6.17544 14.7733C5.58368 17.0417 5.18918 20.0005 5.58368 23.6003C5.63299 23.9948 5.6823 24.4387 5.78093 24.8332C5.92887 25.8194 6.22475 28.5317 4.4988 31.1453L1.19482 35.9286C1.19482 35.9286 0.208556 38.0491 2.67421 38.4929C2.67421 38.4929 3.41391 38.5422 4.00567 38.7888C4.35086 38.9367 4.49879 39.4299 4.20291 39.7257C3.85772 40.1696 3.51253 40.8599 4.5481 41.4023C4.84398 41.5503 4.99192 41.9448 4.79467 42.2407C4.44948 42.8324 4.25223 43.6707 5.68231 44.1146C5.97818 44.2132 6.17543 44.5091 6.12612 44.8049C5.78093 46.5309 5.18917 51.6102 9.87391 51.5609L13.7203 51.1663C16.4325 50.9198 18.9475 52.7443 19.4406 55.4565C19.7365 57.2318 19.9831 59.6482 19.9831 63.0015" stroke="#2B2A39" stroke-width="1.6" stroke-miterlimit="10" stroke-linecap="round"/>
<path d="M21.6597 13.0473L19.0461 9.44751" stroke="#2B2A39" stroke-width="1.6" stroke-miterlimit="10" stroke-linecap="round"/>
<path d="M20.3775 28.3342L17.6653 30.7506" stroke="#2B2A39" stroke-width="1.6" stroke-miterlimit="10" stroke-linecap="round"/>
<path d="M38.0316 21.6277H42.026" stroke="#2B2A39" stroke-width="1.6" stroke-miterlimit="10" stroke-linecap="round"/>
<path d="M32.4099 14.6253L34.4811 11.4692" stroke="#2B2A39" stroke-width="1.6" stroke-miterlimit="10" stroke-linecap="round"/>
<path d="M36.799 26.658L40.9906 29.5674" stroke="#2B2A39" stroke-width="1.6" stroke-miterlimit="10" stroke-linecap="round"/>
<path d="M28.0211 32.033L28.0704 36.0274" stroke="#2B2A39" stroke-width="1.6" stroke-miterlimit="10" stroke-linecap="round"/>
<path d="M17.616 21.6277H15.0024" stroke="#2B2A39" stroke-width="1.6" stroke-miterlimit="10" stroke-linecap="round"/>
<path d="M34.6292 30.1096L39.166 37.9503C39.166 37.9503 41.1385 37.2107 41.8289 35.5341L34.6292 30.1096Z" fill="#5C80FF"/>
<path d="M18.9476 16.1541L13.6712 9.89136C13.6712 9.89136 12.389 11.2228 12.0931 12.2583L18.9476 16.1541Z" fill="#5C80FF"/>
<path d="M36.0097 16.8937L42.667 13.7377C42.667 13.7377 41.7793 12.3076 40.941 11.8145L36.0097 16.8937Z" fill="#5C80FF"/>
<path d="M17.2709 25.3755L11.2054 27.2494C11.2054 27.2494 11.5506 28.7781 12.4382 29.2219L17.2709 25.3755Z" fill="#5C80FF"/>
<path d="M28.1691 11.2718L29.3526 6.24192C29.3526 6.24192 28.1198 5.8474 27.4294 6.29122L28.1691 11.2718Z" fill="#5C80FF"/>
<path d="M25.0622 30.6029C26.7881 25.6223 24.8649 24.0442 20.4761 26.7564C24.9142 24.0442 24.4704 21.5786 19.4405 20.8389C24.4704 21.5786 25.7526 19.4088 22.4486 15.6117C25.7526 19.3595 28.1196 18.5211 28.1196 13.5405C28.1196 18.5211 30.4866 19.3595 33.7906 15.6117C30.4866 19.3595 31.7688 21.5293 36.7987 20.8389C31.7688 21.5786 31.3249 24.0442 35.7631 26.7564C31.3249 24.0442 29.4017 25.6716 31.177 30.6029C29.3031 25.6223 26.7881 25.6223 25.0622 30.6029Z" fill="#5C80FF"/>
</svg>
