<svg width="71" height="64" viewBox="0 0 71 64" fill="none" xmlns="http://www.w3.org/2000/svg">
<path d="M13.844 22.2155C12.0573 11.3638 25.5925 2.75538 35.6085 12.042C35.6085 12.042 30.3027 0.303294 18.2294 1.0337C11.7866 1.45108 6.04769 5.10311 3.06995 10.5812C1.17503 14.1289 0.0380481 18.9809 2.0954 25.085C2.85337 27.2762 3.93619 29.3631 5.28971 31.2413C5.83112 31.9717 6.37251 32.7021 6.96806 33.3803C9.62095 36.3541 14.656 41.1539 19.7453 45.2233C19.7453 45.2233 32.3059 55.136 35.3378 61.7097C35.3378 53.31 31.6021 44.806 25.9714 38.4932C21.6943 33.7977 14.9809 29.1022 13.844 22.2155Z" fill="#5C80FF"/>
<path d="M27.8122 27.1197H34.6339L37.6117 34.3716L39.7232 27.1197L41.8347 19.8678L44.8124 27.1197H47.0322H49.2519L52.2297 34.3716L54.3412 27.1197L56.4527 19.8678L59.4304 27.1197C59.4845 27.1197 59.4845 27.1197 59.5387 27.1197C66.198 27.1197 71.2872 21.2242 69.7713 14.9636C69.4464 13.6071 68.9592 12.2507 68.2554 10.9464C65.3318 5.41615 59.5928 1.71193 53.2042 1.24239C41.1308 0.355463 35.7167 12.042 35.7167 12.042C35.7167 12.042 30.411 0.303294 18.3376 1.0337C11.8948 1.45108 6.15592 5.10311 3.17819 10.5812C1.28326 14.1289 0.146346 18.9809 2.20369 25.085C2.96166 27.2762 4.04442 29.3631 5.39794 31.2413C5.93935 31.9717 6.48081 32.7021 7.07636 33.3803C9.72925 36.3541 14.7643 41.1539 19.8536 45.2233C19.8536 45.2233 32.4142 55.136 35.446 61.7097C38.5321 55.1882 51.201 45.3798 51.201 45.3798C55.045 42.3539 58.6183 39.1714 61.4336 36.4063" stroke="#2B2A39" stroke-width="1.6" stroke-miterlimit="10" stroke-linecap="round"/>
</svg>
