<svg xmlns="http://www.w3.org/2000/svg" viewBox="0 0 134.19 29.42"><defs><style>.cls-1{fill:#1d1d1b;}.cls-2{fill:#5c80ff;fill-rule:evenodd;}</style></defs><g id="Слой_2" data-name="Слой 2"><g id="Слой_1-2" data-name="Слой 1"><path class="cls-1" d="M34,3h4.63v8a5.85,5.85,0,0,1,4.86-2,7.09,7.09,0,0,1,7.12,7.43c0,5-3.3,8-7.43,8-2.81,0-4-1-4.73-2.05,0,.38,0,1.31-.06,1.65H34c0-2.12,0-3.26,0-4.88Zm11.85,13.7c0-2.06-1.08-4-3.63-4s-3.71,1.64-3.71,4.1,1.25,4.09,3.66,4.09S45.84,19,45.84,16.71Z" transform="translate(0 -1.28)"/><path class="cls-1" d="M53.28,13.45c0-1.32,0-2.65,0-4h4.53c.08.52.14,2.14.14,2.93.81-1.93,2.6-3.37,5.64-3.3v4.22c-3.31-.06-5.64,1.27-5.64,5.45v5.35H53.28Z" transform="translate(0 -1.28)"/><path class="cls-1" d="M69.07,17.92a3.33,3.33,0,0,0,3.6,3.16c1.75,0,2.57-.54,3.11-1.44h4.63c-.89,2.6-3.09,4.88-7.79,4.88-6,0-8.16-4-8.16-7.7,0-4.13,2.77-7.74,8.12-7.74,5.7,0,8,3.92,8,7.74,0,.37,0,.63,0,1.1Zm6.82-2.83c-.1-1.12-.7-2.77-3.31-2.77-2.43,0-3.32,1.33-3.45,2.77Z" transform="translate(0 -1.28)"/><path class="cls-1" d="M87.18,17.92a3.33,3.33,0,0,0,3.6,3.16c1.75,0,2.57-.54,3.11-1.44h4.63c-.89,2.6-3.09,4.88-7.79,4.88-6,0-8.16-4-8.16-7.7,0-4.13,2.77-7.74,8.12-7.74,5.71,0,8,3.92,8,7.74,0,.37,0,.63,0,1.1ZM94,15.09c-.1-1.12-.7-2.77-3.31-2.77-2.43,0-3.32,1.33-3.45,2.77Z" transform="translate(0 -1.28)"/><path class="cls-1" d="M104.16,9.47c1.82,2.3,3.09,3.86,3.57,4.51h.06c.65-.92,1.84-2.45,3.43-4.51h4.92l-5.87,7,6.15,7.65h-5.24c-1.81-2.37-3.08-3.93-3.66-4.7h0c-.49.62-1.62,2.07-3.61,4.7H98.93l5.93-7.42-6-7.23Z" transform="translate(0 -1.28)"/><path class="cls-1" d="M122,9.47c2.53,6.36,3.61,9.89,3.9,11H126c.39-1.47,1.53-5.34,3.51-11h4.72L129.3,22c-2.53,6.53-3.3,8.67-8.3,8.67a14.56,14.56,0,0,1-2.27-.17V26.79a14.42,14.42,0,0,0,1.47.07c2,0,2.46-.63,3.23-2.18L116.91,9.47Z" transform="translate(0 -1.28)"/><path class="cls-2" d="M28.2,17.25l0-.16a1.62,1.62,0,0,1-.09-.38.49.49,0,0,0-.08-.23c-.17-.1,0-.3-.15-.42s0-.25-.11-.34,0-.14,0-.22,0-.16-.11-.23h0c-.06-.06,0-.17-.11-.23v-.11c-.07-.06,0-.16-.11-.23v-.1c-.07-.07,0-.17-.11-.23v-.11c-.11-.09,0-.25-.11-.34v-.11l0,0h0a.29.29,0,0,0-.05-.2h0c-.1-.09,0-.24-.11-.33v-.11L26.84,13v-.1a1.31,1.31,0,0,0-.11-.12.41.41,0,0,1,0-.11c-.06-.06,0-.17-.1-.23h0c-.07-.06-.05-.16-.12-.22h0c-.07-.06,0-.17-.11-.23v-.1l-.11-.12v-.11l-.11-.12h0a3.88,3.88,0,0,1-.23-.33h0c-.07-.06,0-.17-.11-.23h0l-.11-.12h0c-.07-.06,0-.16-.12-.22s-.16,0-.21-.12h0c-.07-.05,0-.16-.12-.22h0l-.12-.12h0L25,10.12h0a.57.57,0,0,0-.11-.11h0a.69.69,0,0,1-.22-.23h0l-.12-.11h0l-.12-.11h0l-.11-.12h0a1.14,1.14,0,0,1-.11-.11h0l-.12-.11h0L24,9.11h0a.81.81,0,0,1-.22-.23h0l-.11-.11h0l-.11-.11h0a2.44,2.44,0,0,1-.33-.23h0a.52.52,0,0,1-.1-.11h0A1.14,1.14,0,0,1,23,8.21h0c-.07-.06-.17-.05-.23-.11h0a.17.17,0,0,0-.2,0,0,0,0,0,0,0-.08h0l-.12-.11h-.11l-.11-.11h0l-.11-.11h0c-.06-.08-.16,0-.22-.12h0l-.12-.1h0a.35.35,0,0,0-.3,0s0,.06,0,.08l0,0a4.11,4.11,0,0,1-.68-.21l-.54,0-.22,0c-.18-.14-.39-.09-.59-.12a13,13,0,0,0-2.15-.31l-.22,0a7.05,7.05,0,0,0-2.82.12c-.43.1-.85.25-1.28.38a.87.87,0,0,1-.45.22.79.79,0,0,1-.56.22.85.85,0,0,1-.44.23,2.75,2.75,0,0,1-.9.57c-.08.09-.16.19-.25.28l-.2,0-.12.1L9,10H9l-.2.06-.11.11a.57.57,0,0,1-.11.11,1.07,1.07,0,0,1-.47.54l-.1.12L7.91,11a.52.52,0,0,1-.23.33.42.42,0,0,1-.24.32v.09a.1.1,0,0,0-.1,0,1.9,1.9,0,0,0-.22.33c-.12.17-.13.38-.24.56h0c-.06.06,0,.16-.1.23h0c-.11.08,0,.24-.12.33h0c-.1.09,0,.24-.11.34h0c-.13.14,0,.33-.11.48a.29.29,0,0,1,0,.09c-.11.17,0,.39-.1.57l0,.21a3.53,3.53,0,0,0,0,.92l.15.05-.09,0a4.85,4.85,0,0,0,.27,2A4,4,0,0,0,7,19.09v.21h.1a.86.86,0,0,0,.11.45h.1l0,.31.1.12a.25.25,0,0,1,.11.23.26.26,0,0,1,.12.21.46.46,0,0,1,.23.34.52.52,0,0,1,.23.33l.1.12.19.13h0l.05.2a.52.52,0,0,0,.1.11l.1.13.11.11a.13.13,0,0,1,.11.11l.12.11a.57.57,0,0,0,.11.11l.11.12a.57.57,0,0,1,.11.11h.11v.1l.12.11.11.11.11.12.12.11.21.12a.54.54,0,0,0,.23.22.45.45,0,0,1,.23.22l.12.1.19,0h0c.17.42.54.5.93.55h.1c.06.06.16,0,.22.11h0c.06.06.17,0,.23.11h0c.08.13.23,0,.33.11h0c.16.16.38.15.57.22h0a.4.4,0,0,0,.42,0s0,.08,0,.1h.11a1.5,1.5,0,0,0,.89,0,.21.21,0,0,1,.11,0c.13-.12.32,0,.45-.12h0l.11-.09a5.1,5.1,0,0,0,1.46,0H17c.13-.12.32,0,.45-.1h.33c.1-.1.25,0,.34-.11h0a.07.07,0,0,0,0-.06h0c.14,0,.29,0,.41-.05h0c.09-.11.25,0,.34-.11H19l.11-.1h0c.05-.08.16-.05.22-.12h0c.06-.07.16,0,.22-.11h.11c.06-.07.16,0,.23-.11H20c.06-.07.16-.05.22-.12h0a.81.81,0,0,0,.23-.22h0a.66.66,0,0,0,.22-.22h0a.13.13,0,0,0,0-.08v0h.07v-.07h0l0,0h.07v-.11h0a.14.14,0,0,0,.11,0h0s.08-.07.11-.11h0l.11-.11h0l.12-.11h0c0-.07.16-.05.22-.12s.05-.16.11-.22h0c.07-.06.05-.17.12-.22h0l.1-.11h0c.07-.06.05-.16.12-.22h0c.1-.1,0-.25.11-.34v-.11l.11-.12v-.1c.07-.07.05-.17.11-.23a.37.37,0,0,1,0-.11c.11-.13,0-.32.11-.45h0c.09-.09,0-.25.11-.33h0c.06-.06,0-.16.11-.22h0c.13-.17,0-.4.11-.56v-.67c-.1-.09,0-.24-.11-.34v-.22c-.07-.06-.05-.17-.11-.23h0c-.11-.09,0-.24-.11-.33h0c-.07-.06,0-.17-.11-.23h0c-.07-.06-.05-.16-.12-.22s-.07,0-.11,0,.06-.14,0-.22v-.1c-.07-.07-.05-.17-.11-.23s0,0,0,0h0a.25.25,0,0,0,0-.09,1.55,1.55,0,0,0,0-.22l-.1-.12a.41.41,0,0,1,0-.11c-.06-.06,0-.17-.11-.23h0c-.1-.09,0-.24-.11-.33h0c-.07-.06-.05-.17-.11-.23h0c-.07-.06-.05-.16-.11-.22h0c-.07-.06-.05-.17-.12-.23s0-.16-.11-.22h0L21,14.38h0c-.07-.06-.05-.17-.12-.23h0L20.78,14h0l-.11-.11h0l-.11-.11h0c-.07-.05,0-.16-.11-.22l-.11-.11h0l-.11-.11h0l-.12-.11h0L20,13.14h0c-.07-.05-.05-.16-.11-.22a.11.11,0,0,0-.11,0s0-.06,0-.09a.24.24,0,0,1-.22-.11.22.22,0,0,1-.22-.12l-.12-.11-.11-.11a.92.92,0,0,1-.34-.21h-.43a.1.1,0,0,0,0-.1h-.22a2.11,2.11,0,0,0-1,0h-.23a.16.16,0,0,0-.22,0h-.33a.12.12,0,0,0,0,.1h-.67a.43.43,0,0,0,0,0,.27.27,0,0,0-.21.06h0c-.09.1-.25,0-.34.11h0c-.06.06-.16,0-.23.11h-.09l-.09.07-.06,0h-.09v.05l0,0-.06,0h-.12a.13.13,0,0,0,0,.06l0,0,0,0h-.14v.08l-.11,0h0c0,.07-.16.05-.22.11h0c-.06.07-.16.05-.22.12h0a.43.43,0,0,0-.12.11h0l-.12.11-.11.1-.09,0a.33.33,0,0,0-.13.11h0l-.11.12h0l-.12.11h0l-.12.11h0a1.14,1.14,0,0,1-.11.11h0a.05.05,0,0,0,0,.08h0a.09.09,0,0,0-.09,0h0a.57.57,0,0,1-.11.11h0a.57.57,0,0,1-.11.11h0l-.11.11h0a.68.68,0,0,0-.12.12h0a4.15,4.15,0,0,0-.24.34h0l-.1.11h0c-.07.06,0,.17-.12.22h0c-.06.07,0,.17-.11.23h0c-.07.06,0,.16-.11.22h0c-.06.06,0,.17-.11.23h0c-.06.06,0,.16-.1.22h0c-.11.1,0,.25-.12.35v.21a.91.91,0,0,0,0,.67.21.21,0,0,1,0,.11c.12.13,0,.32.11.46a.28.28,0,0,1,0,.09c.09.1,0,.26.11.35h0c.06.06,0,.17.11.23a.33.33,0,0,1,0,.1c.06.06,0,.17.11.23h0c.06.06.05.16.11.23s.07,0,.11,0v.21a.25.25,0,0,1,.12.22l.11.12.11.11a.57.57,0,0,1,.34.44l.11.12.11.11a1.14,1.14,0,0,0,.11.11l.11.12.12.11a.22.22,0,0,1,.11.22l.11.11h.07c0,.08,0,.15.05.21h.11l.1.1.12.22c.06.07.16.05.22.12h0l.12.11H14l.11.11h0l.12.11h.1a.22.22,0,0,0,.22,0,.27.27,0,0,0,.18-.07A7.68,7.68,0,0,0,15.84,22a2.75,2.75,0,0,1,.8-.19c.25-.2.56-.33.72-.65a.44.44,0,0,1,.2-.18,1.83,1.83,0,0,0,.5-.5,1.64,1.64,0,0,0,.37-.79,1.06,1.06,0,0,0-.07-.85.8.8,0,0,1,0-.32.28.28,0,0,0-.12-.18,1.26,1.26,0,0,1-.41-.62c0-.1,0-.21-.14-.28a1,1,0,0,0-.18-.18c-.14-.08-.24,0-.29.16a.41.41,0,0,0,0,.11c-.05.07-.15.14-.15.22a2.8,2.8,0,0,1-.29.69c-.23,0-.33.21-.45.38a1.16,1.16,0,0,1-.39.46,2.74,2.74,0,0,1-1.36.41.41.41,0,0,0-.36.11h-.56l-.78-.23h0s.05,0,.07-.06a2.64,2.64,0,0,1-.1-1c0-.07,0-.14,0-.21a9.65,9.65,0,0,1,.55-1.06,1.29,1.29,0,0,1,.25-.36,7.24,7.24,0,0,1,1.78-1.48,2.1,2.1,0,0,0,.3-.22h0a.13.13,0,0,0,.06-.07h.66a.31.31,0,0,0,.24-.1l.9-.12a4.55,4.55,0,0,1,1.79.22s.07,0,.11,0a1.16,1.16,0,0,0,.53.54c.09.06.19.11.23.22a3.15,3.15,0,0,1,.36,1.59v.11h0a.21.21,0,0,0-.1.2l-.1,0a2.31,2.31,0,0,0-.48.88,5.32,5.32,0,0,1-3.1,3.18c-.69.32-1.46.36-2.16.64H14.4a.12.12,0,0,0,0,.1h-1.5c-.09-.06-.21,0-.3-.11h0c-.17-.15-.4,0-.58-.12a.14.14,0,0,1-.09,0c-.09-.1-.25,0-.35-.11h0c-.08-.11-.24,0-.33-.11h0a.33.33,0,0,0-.29-.06l0,0A.4.4,0,0,0,10.7,22a.34.34,0,0,1-.24-.18.23.23,0,0,1-.21-.13l-.13-.09a.6.6,0,0,1-.34-.22.27.27,0,0,1-.21-.13h-.1s0-.07,0-.1L9.35,21l-.11-.12H9.15l0-.21a.42.42,0,0,1-.23-.33.27.27,0,0,1-.12-.22.3.3,0,0,1-.11-.23.26.26,0,0,1-.1-.23c-.14-.07-.07-.27-.21-.35h0c0-.11,0-.22,0-.33a.28.28,0,0,1,0-.09l-.09,0a.28.28,0,0,0,0-.09h0a.18.18,0,0,0,.06-.08c0-.19.05-.39,0-.58s0-.22,0-.32a2.33,2.33,0,0,1,0-1.05v-.09c.15-.17,0-.4.12-.57h0c.14-.17,0-.4.11-.57h0c.07-.06.05-.17.11-.23h0c.1-.09,0-.25.11-.34h0c.07,0,.06-.16.11-.22h0c.08-.06.06-.16.11-.23h0c.08-.06.06-.17.12-.23H9c.07,0,.05-.16.11-.22h0a.63.63,0,0,0,.11-.12h0c.08-.05,0-.16.12-.22h0c.08-.1.14-.23.22-.33h0l.11-.12h0a.36.36,0,0,0,.08-.12h0a.29.29,0,0,1,.13-.22L10,12.8l.11-.11.12-.11a1.14,1.14,0,0,1,.11-.11l.11-.11v-.11h.11a.45.45,0,0,0,0-.11h.1l.12-.11.11-.11L11,11.8l.11-.12.11-.11a.45.45,0,0,1,.23-.22h.22l.12-.11h0a.08.08,0,0,0,0-.1l0,0,.08,0H12c.06-.06.16,0,.23-.11h0c.06-.07.17,0,.23-.11h.11l.11-.11h0c.06-.07.17,0,.23-.11h.11c.06-.07.16,0,.22-.11h.34c.2-.14.46,0,.67-.11h.11c.29-.15.62,0,.9-.11h.23a.29.29,0,0,0,.33,0h.34a.27.27,0,0,1,.34,0h.67c.29.15.61,0,.9.11h.78c.21.14.47,0,.68.11h.55c.17.13.4,0,.56.11h0c.13.11.32,0,.45.11h0c.09.1.25,0,.34.11h.11c.06.07.17,0,.23.11h.11c.06.07.16.05.22.11h.11c.07.06.05.16.12.22h.11c.06.07.16,0,.22.11h0c.06.07.17,0,.22.11h0c.06.05,0,.16.12.22a.33.33,0,0,1,.1,0l.11.11h0c.19.2.52.2.68.45H24a.66.66,0,0,0,.22.22h0l.11.11h0a.63.63,0,0,1,.23.23h0l.11.11h0c.07.06.05.16.11.23l.11.11h0l.12.11h0a.58.58,0,0,1,.22.22h0a.21.21,0,0,0,.24,0v0a.42.42,0,0,0,.21.33h0c.07.06.05.16.11.22h0c.07.06,0,.17.11.23a.1.1,0,0,1,0,.09c.05.07,0,.18.11.24s0,.25.11.33h0c.06.07,0,.17.11.24h0c.06.06,0,.15.07.22l0,0v.1h0a.18.18,0,0,0,0,.22c0,.18,0,.36,0,.54l.09.05c0,.29,0,.58,0,.87v.12h0c0,.07,0,.14,0,.22h0v.12a.61.61,0,0,1-.05.12,1,1,0,0,1-.06.35,1.36,1.36,0,0,1,0,.2.22.22,0,0,0,0,.16.1.1,0,0,0,0,.07c-.06,0-.07.09-.09.14s0,.05,0,.07a.33.33,0,0,0,0,.32s.05,0,.08,0h-.08l-.18.24a.35.35,0,0,1-.1.24c-.16.41-.31.83-.47,1.24a.78.78,0,0,1-.13.24,4.89,4.89,0,0,0-.78.86,4.4,4.4,0,0,0-.89,1.12l-.33.22c0,.07,0,.11-.1.12a.16.16,0,0,1-.11.13,2.13,2.13,0,0,1-.67.56.14.14,0,0,1-.12.1c-.18.25-.48.35-.68.57h-.1s0,.07,0,.1h-.11a.36.36,0,0,1,0,.09.08.08,0,0,0-.07,0h-.1l0,.1-.3.14c-.22.25-.56.31-.82.5-.18,0-.33.18-.53.17a1.81,1.81,0,0,1-.64.31l-1.12.37a9.36,9.36,0,0,1-2.72.52.87.87,0,0,0-.48.11h-.78a7,7,0,0,1-2.92-.55.42.42,0,0,1-.34-.1,1.37,1.37,0,0,1-.68-.22,1.14,1.14,0,0,1-.56-.22,2,2,0,0,1-.78-.35c-.2-.09-.43-.13-.56-.34a.48.48,0,0,1-.34-.21A1.91,1.91,0,0,1,7,24.93a.52.52,0,0,1-.33-.23.13.13,0,0,1-.13-.09,1.22,1.22,0,0,1-.44-.34A.53.53,0,0,1,5.75,24a.58.58,0,0,1-.34-.23.52.52,0,0,1-.33-.23A.14.14,0,0,1,5,23.49l-.17,0-.16-.19-.16,0a.16.16,0,0,1-.15-.1h0s0-.06,0-.09l-.13-.09a.47.47,0,0,1-.34-.34l-.08,0a2.53,2.53,0,0,1-.13-.22v-.11A.27.27,0,0,1,3.51,22a.16.16,0,0,1-.09,0,1.16,1.16,0,0,0,0-.18.34.34,0,0,1-.1-.23.3.3,0,0,1-.11-.23L3,21c0-.24-.15-.43-.12-.67a.83.83,0,0,1-.13-.43c-.09-.31-.19-.61-.29-.91h0c.15-.13.06-.3.09-.45l-.08-.05c0-.54,0-1.08,0-1.62a1.39,1.39,0,0,1,.09-.6c0-.21,0-.43,0-.65l.08,0,0-.2c.07-.12.13-.24.2-.35A.25.25,0,0,1,3,14.82l0-.52a.4.4,0,0,0,.1-.26l.08,0a2.63,2.63,0,0,0,.37-.84l.33-.47.09,0c.11-.18.16-.41.35-.54V12h0l0,0v0l.18-.18a.14.14,0,0,1,.1-.12c0-.16.08-.34.25-.43A.13.13,0,0,1,5,11.1.14.14,0,0,1,5.06,11l.36-.65h.1l0-.08A2.21,2.21,0,0,0,6,9.69a.6.6,0,0,1,.09-.13v0h.09a.22.22,0,0,1,0-.08l.12,0A1.69,1.69,0,0,1,7,8.75a.14.14,0,0,1,.1-.12.14.14,0,0,1,.11-.1.34.34,0,0,0,0-.09l0,0h.09a.29.29,0,0,1,0-.09h0l.12-.11h.1a.29.29,0,0,1,0-.09h0A.19.19,0,0,1,7.69,8a.12.12,0,0,1,.12-.11h0L8,7.85a.28.28,0,0,1,0-.09H8l.09,0a.12.12,0,0,1,.12-.09s0-.07,0-.1h0a.69.69,0,0,1,.13-.11l.3-.14a1.75,1.75,0,0,1,.68-.55.52.52,0,0,1,.33-.23.13.13,0,0,1,.12-.1l.57-.58h.09a.57.57,0,0,1,.33-.22.17.17,0,0,1,.13-.1s0-.06,0-.09c.21-.07.31-.32.55-.35L11.59,5a.11.11,0,0,0,.11,0h0s0,0,0,0,.16,0,.21,0h0c.1-.09.25,0,.34-.1a.08.08,0,0,1,.08,0c.08,0,.19,0,.26-.1h0c.21-.14.46,0,.67-.1l.19,0c.09-.05.21,0,.29-.09h0a.27.27,0,0,0,.31,0h.19s.06,0,.05-.07l0,0a.65.65,0,0,0,.2,0l.12,0H15a.09.09,0,0,1,.09,0l0-.06h.47c0-.07,0,0,0,0s.05,0,.08,0a.08.08,0,0,0,.07.07h.3c.08-.07.19,0,.28-.09s0,0,0,0h.5c.21.17.46.06.68.09h0l.32,0a.64.64,0,0,1,.48.18h.44l.19,0a.36.36,0,0,0,0,.09h.21l0,.08c.12,0,.24,0,.32.12s.34.15.52.16a1,1,0,0,0,.78.05s0-.05,0-.08h0A.27.27,0,0,0,21,4.9a.68.68,0,0,0,.22-.5,4.08,4.08,0,0,0,0-1.21L21,2.93a.82.82,0,0,0-.25-.44V2.38a.49.49,0,0,1-.23-.22.17.17,0,0,1-.12-.11l-.11-.11A.5.5,0,0,1,20,1.73a.72.72,0,0,1-.43-.12,3.29,3.29,0,0,1-1.24-.23c-.5,0-1,0-1.49,0a4,4,0,0,1-1-.08,3.62,3.62,0,0,1-.66.09h-.77a.43.43,0,0,1-.31.1h-.82a1.53,1.53,0,0,1-.79.11c-.16.15-.37.1-.56.11a.28.28,0,0,1-.22.11.08.08,0,0,0-.11,0h-.22c-.07.07-.17.05-.23.11H11l-.12.1h-.11c-.06.06-.16,0-.22.1h-.11a.11.11,0,0,0,0,.11h-.21c-.08.12-.21.11-.33.11a.27.27,0,0,1-.22.12h0l-.13.1h0A1.32,1.32,0,0,1,8.8,3l-.12.1a.25.25,0,0,1-.23.11A.72.72,0,0,1,8,3.41l-.13.09-.1.12H7.67a.23.23,0,0,1-.22.12l-.12.11L7.22,4A.24.24,0,0,1,7,4.07l-.12.11-.12.11a.89.89,0,0,1-.55.45l-.12.11V5H6l-.11.12-.11.11-.11.11-.12.11-.11.11-.11.12-.11.11A.22.22,0,0,1,5,6a.37.37,0,0,1-.24.32l-.11.12-.11.11a.4.4,0,0,1-.22.22l-.12.12L4.08,7,4,7.09l-.11.11-.11.12a.57.57,0,0,0-.11.11l-.11.11a.27.27,0,0,1-.12.22l-.11.11L3.18,8l-.1.11L3,8.22a.25.25,0,0,1-.12.22.57.57,0,0,0-.11.11,1.14,1.14,0,0,0-.11.11l-.11.12A.25.25,0,0,1,2.4,9l-.11.11-.11.12a.21.21,0,0,1-.12.21L2,9.56a.6.6,0,0,1-.34.45.34.34,0,0,1-.22.33.38.38,0,0,1-.23.34l-.11.11A.25.25,0,0,1,1,11a.25.25,0,0,1-.12.22l-.11.11v.34c0,.16,0,.36,0,.48A2.17,2.17,0,0,0,.45,13s0,.05-.07.08,0,.26-.11.34v.43A.3.3,0,0,1,.16,14c0,.13,0,.26-.11.34a.84.84,0,0,0,.11.56,1.77,1.77,0,0,0,0,.23l0,0h0s0,0,0,0c0,.19,0,.37,0,.56a0,0,0,0,0,0,.07h0a1,1,0,0,0-.1.6,4.63,4.63,0,0,0,0,1.34c0,.11,0,.22,0,.34a.06.06,0,0,1,0,.09A1.77,1.77,0,0,1,.17,19a.08.08,0,0,0,.09,0h0a.1.1,0,0,0,0,.1,3.09,3.09,0,0,0,.22,1,1.11,1.11,0,0,1,.22.79A1.59,1.59,0,0,1,.86,21a.08.08,0,0,0,.07.1h0l.11.32H1a1.06,1.06,0,0,0,0,.68l.1.11a.41.41,0,0,1,0,.11,1.56,1.56,0,0,1,.34.68h0a.22.22,0,0,1,.21.24c0,.07,0,.14,0,.21h0c.16.15.42.18.45.45h0A.23.23,0,0,1,2.4,24c.09,0,.11.12.12.22l.09.09h0a.23.23,0,0,0,0,.24h0a1.14,1.14,0,0,1,.11.11h0l.1.11h0a1.14,1.14,0,0,1,.11.11H3l.12.11a.34.34,0,0,1,.1,0c.07.06,0,.16.12.22l.11.11c.07.06,0,.17.11.23h0l.11.11h0l.12.11a1.14,1.14,0,0,0,.11.11H4c.07.05,0,.16.11.22h0c.06.06.17,0,.23.11s.24,0,.33.11h0l.12.11h0c0,.07.16.05.22.12H5c.1.13,0,.37.23.44h.1a.16.16,0,0,1,.23,0,.39.39,0,0,0,.22.23c.07.06,0,.17.12.22H6.1c.21.14.52.09.67.34h0c.19,0,.27,0,.34-.19v.3h.44a.25.25,0,0,0,.23.1H8l.12.22a1.14,1.14,0,0,1,.11.11h.45v-.22H9c-.11.25.05.36.24.44s.19-.06.22.11.09.19.23.11.18-.21.24-.1c.22.41.69.33,1,.55H11c.34-.25.67,0,1,0h0a.3.3,0,0,0,.34,0h0s0,0,0,0a.07.07,0,0,1,.08,0h0l.11.12h0c.07.06.09.19.23.11h0a.31.31,0,0,1,.46.11h.1l.12-.11h0a.27.27,0,0,1,.34,0h.1c.1-.07.2,0,.29,0a.17.17,0,0,0,.06.11h.55a.05.05,0,0,0,0-.07.34.34,0,0,1,.32.07h.11c.4-.23.83-.06,1.25-.08l.31,0,.15,0,.07,0a.75.75,0,0,1,.26,0,.31.31,0,0,0,.19,0c.06,0,.08-.11.13-.16h.22a.14.14,0,0,0,0-.11h.77l.12-.1h.11a.14.14,0,0,0,.22,0h0c.09-.1.25,0,.34-.11h0s.07-.08.11-.11h0v-.12l1-.33.34-.23h.21a.28.28,0,0,1,.22-.11l.13-.1a.24.24,0,0,1,.22-.11.22.22,0,0,0,0-.08l0,0a.14.14,0,0,0,.19,0h0L22,27.6h0l.12-.1a.14.14,0,0,1,.09,0l.14-.1h0l.11-.12h.11c0-.09.12-.11.21-.13l.12-.1a.27.27,0,0,1,.22-.12l.12-.1a.27.27,0,0,1,.22-.12l.11-.12.11-.1.12-.11a1.14,1.14,0,0,1,.11-.11.09.09,0,0,0,0-.05l.11-.05h0a.06.06,0,0,0,0-.08l.1,0h.09v0h0a.15.15,0,0,0,.11-.08h0c.08-.05.06-.16.12-.22h0l.11-.11h0a.29.29,0,0,0,.11-.11h0a.34.34,0,0,0,.12-.12h0a.63.63,0,0,0,.12-.11h0l.12-.11h0l.1-.12h0c.07-.05.05-.16.12-.22l.11-.1a.11.11,0,0,1,.08,0c.1,0,.07-.16.15-.21h0c.06-.07,0-.17.1-.23h0c.07-.06.05-.16.12-.23h0l.11-.12a.69.69,0,0,0,.11-.13.14.14,0,0,1,0-.09,1.14,1.14,0,0,1,.11-.11h0s0-.06,0-.08h0a.07.07,0,0,0,.08,0c.07-.06.05-.16.12-.22h0a1,1,0,0,1,.22-.23h0a.38.38,0,0,0,.11-.11c.07-.05.05-.16.12-.22h0c.06-.06,0-.16.11-.23h0c0-.12,0-.25.12-.33a3.67,3.67,0,0,1,.21-.46c0-.09,0-.17.13-.21h0c.06-.06.05-.17.11-.23h0c.12-.12,0-.32.11-.45h0a.17.17,0,0,0,0-.22h0a.11.11,0,0,0,.12,0,.43.43,0,0,0,.1-.24A3.54,3.54,0,0,1,28,19.18a.76.76,0,0,0,0-.16,4.22,4.22,0,0,1,.1-.7l0-.16A4.6,4.6,0,0,0,28.2,17.25Z" transform="translate(0 -1.28)"/></g></g></svg>